<?xml version="1.0" encoding="UTF-8" standalone="no"?>
<!-- Created with Inkscape (http://www.inkscape.org/) -->

<svg
   xmlns:dc="http://purl.org/dc/elements/1.1/"
   xmlns:cc="http://creativecommons.org/ns#"
   xmlns:rdf="http://www.w3.org/1999/02/22-rdf-syntax-ns#"
   xmlns:svg="http://www.w3.org/2000/svg"
   xmlns="http://www.w3.org/2000/svg"
   xmlns:sodipodi="http://sodipodi.sourceforge.net/DTD/sodipodi-0.dtd"
   xmlns:inkscape="http://www.inkscape.org/namespaces/inkscape"
   width="210mm"
   height="297mm"
   viewBox="0 0 744.09448819 1052.3622047"
   id="svg4343"
   version="1.1"
   inkscape:version="0.91 r13725"
   sodipodi:docname="drawing.svg">
  <defs
     id="defs4345" />
  <sodipodi:namedview
     id="base"
     pagecolor="#ffffff"
     bordercolor="#666666"
     borderopacity="1.0"
     inkscape:pageopacity="0.0"
     inkscape:pageshadow="2"
     inkscape:zoom="0.35"
     inkscape:cx="-59.285714"
     inkscape:cy="520"
     inkscape:document-units="px"
     inkscape:current-layer="layer1"
     showgrid="false"
     inkscape:window-width="1920"
     inkscape:window-height="1027"
     inkscape:window-x="0"
     inkscape:window-y="0"
     inkscape:window-maximized="1" />
  <metadata
     id="metadata4348">
    <rdf:RDF>
      <cc:Work
         rdf:about="">
        <dc:format>image/svg+xml</dc:format>
        <dc:type
           rdf:resource="http://purl.org/dc/dcmitype/StillImage" />
        <dc:title></dc:title>
      </cc:Work>
    </rdf:RDF>
  </metadata>
  <g
     inkscape:label="Layer 1"
     inkscape:groupmode="layer"
     id="layer1">
    <path
       style="fill:#4faca4;fill-opacity:1;stroke:#000000;stroke-opacity:1"
       d="m 183.35836,271.07411 c -1.6312,-2.08341 -7.38726,-22.88273 -9.71643,-35.10996 -2.37386,-12.46178 -2.43611,-30.79417 -0.12337,-36.32933 2.25901,-5.40656 6.43337,-8.24821 12.1166,-8.24821 5.76249,0 10.50025,3.64766 12.46325,9.59564 2.14161,6.48912 0.73712,30.98914 -2.5312,44.15436 -6.44197,25.94911 -8.60382,30.54194 -12.20885,25.9375 z m 6.94115,-19.375 c 4.49668,-17.09776 5.64825,-24.42919 5.75075,-36.6116 0.08,-9.50018 -0.35762,-12.62422 -2.15254,-15.36829 -4.46248,-6.82226 -12.28176,-6.82226 -16.74425,0 -2.71933,4.15733 -2.98731,22.77151 -0.50089,34.79239 3.8198,18.4672 6.59571,26.875 8.87302,26.875 1.72418,0 2.8006,-2.18435 4.77391,-9.6875 z m -87.69058,-13.64584 c -1.75899,-1.75899 -0.58866,-4.79909 6.8166,-17.70712 21.61842,-37.68288 38.99224,-51.31737 50.60007,-39.70954 11.65996,11.65996 -1.83577,28.8555 -39.70954,50.59574 -12.9074,7.40908 -15.94779,8.58026 -17.70713,6.82092 z M 124.727,223.97732 c 14.44252,-8.74377 27.04375,-18.73871 31.35023,-24.86609 9.60873,-13.67153 -0.85472,-24.13498 -14.52626,-14.52626 -9.05301,6.36269 -32.18719,39.471 -30.55398,43.72709 1.08411,2.82515 2.79683,2.28441 13.73001,-4.33474 z m 125.7986,7.23428 c -37.73893,-21.93609 -51.07002,-39.00496 -39.5,-50.57499 11.6779,-11.6779 28.84921,1.82576 50.67929,39.85457 11.73167,20.43703 9.39395,22.6788 -11.17929,10.72042 z m 9.52861,-2.89954 c 1.63322,-4.25609 -21.50097,-37.3644 -30.55398,-43.72709 -9.35648,-6.57597 -18.22463,-4.19649 -18.22463,4.89003 0,8.70272 10.91678,19.55624 34.18785,33.98976 11.36153,7.0468 13.47704,7.74961 14.59076,4.8473 z m -82.0367,-44.27056 c -14.0069,-4.58622 -21.78267,-14.9044 -21.78267,-28.90489 0,-17.18447 12.10146,-29.28253 29.29076,-29.28253 17.1893,0 29.29076,12.09806 29.29076,29.28253 0,11.9139 -5.55226,21.09252 -16.01276,26.47126 -5.38916,2.77106 -15.97149,4.01004 -20.78609,2.43363 z M 116.7756,169.2698 c -7.37626,-0.78688 -27.580679,-5.09548 -38.124999,-8.13017 -8.3599,-2.406 -10.06547,-3.33897 -10.39918,-5.68851 -0.48313,-3.40161 0.95164,-4.02456 20.94003,-9.09179 29.192039,-7.40043 50.077169,-7.59334 57.142689,-0.52781 4.18635,4.18634 4.1977,14.41248 0.0206,18.58954 -4.56302,4.56301 -15.48088,6.35271 -29.57919,4.84874 z m 23.69665,-5.9806 c 6.49745,-3.35996 6.69219,-12.84451 0.33127,-16.13387 -5.9303,-3.06668 -14.07576,-3.52555 -27.15292,-1.52965 -14.533239,2.21813 -30.322989,6.20892 -32.270209,8.15614 -2.18746,2.18746 0.48741,3.83455 10.5625,6.50399 22.992219,6.09191 40.465629,7.1733 48.529359,3.00339 z m 89.27622,3.80126 c -5.14121,-2.23759 -7.97287,-6.48312 -7.97287,-11.95385 0,-5.57942 2.87246,-9.76091 8.24821,-12.00704 6.07688,-2.53908 24.79793,-2.19037 39.05544,0.72748 13.0004,2.66058 32.36799,8.03453 33.67819,9.34473 3.23909,3.23909 -9.66773,8.30377 -33.67819,13.21546 -14.11382,2.88718 -33.48208,3.21871 -39.33078,0.67322 z m 38.36849,-3.83551 c 17.44437,-3.64593 23.65864,-5.77833 23.65864,-8.11834 0,-2.32823 -6.2216,-4.47433 -23.34253,-8.05185 -27.68003,-5.7839 -43.32413,-2.87642 -43.32413,8.05185 0,4.51287 3.26114,8.37324 8.44,9.99084 4.9915,1.55907 22.75251,0.59698 34.56802,-1.8725 z M 143.6506,131.8198 c -9.33389,-4.89524 -21.67383,-20.01516 -34.30862,-42.03777 -11.739319,-20.46179 -9.632759,-22.56836 10.82904,-10.82904 37.8367,21.70763 51.48009,39.05811 39.85458,50.68362 -4.81991,4.81991 -10.02443,5.5138 -16.375,2.18319 z m 14.3125,-4.87259 c 3.03224,-2.96932 2.19477,-9.97919 -1.88587,-15.78523 -4.30648,-6.12738 -16.90771,-16.1223 -31.35023,-24.86608 -10.94113,-6.62397 -12.64559,-7.1607 -13.73383,-4.32478 -1.41417,3.68525 20.62928,36.31119 28.68452,42.45522 7.66976,5.85001 13.9952,6.72205 18.28541,2.52087 z m 53.0625,2.6894 c -11.6779,-11.6779 1.82576,-28.84921 39.85457,-50.67928 20.46102,-11.74545 22.56904,-9.63827 10.82904,10.8247 -21.70762,37.8367 -39.0581,51.48009 -50.68361,39.85458 z m 18.80588,-4.25096 c 2.71198,-1.86767 7.95593,-7.32838 11.65321,-12.13491 7.41267,-9.63658 19.04091,-28.2717 19.04091,-30.51446 0,-3.42153 -4.3324,-2.43453 -13.39701,3.05207 -27.25912,16.49935 -38.96083,29.23393 -35.42017,38.54658 2.49103,6.55187 9.54147,6.96064 18.12305,1.05072 z m -53.61097,-9.4405 c -7.87467,-7.87467 -6.64411,-33.07215 3.30544,-67.68354 2.40355,-8.36119 3.33523,-10.06542 5.68514,-10.39917 3.40161,-0.48314 4.02456,0.95163 9.09178,20.94002 5.10512,20.13782 6.94813,37.44372 4.99139,46.86923 -2.0779,10.00922 -5.41792,13.21492 -13.76866,13.21492 -5.01532,0 -6.98687,-0.62323 -9.30509,-2.94146 z m 13.62409,-1.58502 c 6.60637,-2.5351 8.0476,-20.15971 3.41189,-41.72352 -6.31656,-29.38255 -9.09784,-29.38255 -15.49391,0 -4.5133,20.73337 -3.16446,39.16332 3.04922,41.66338 2.30482,0.92734 6.69671,0.95658 9.0328,0.0601 z"
       id="path3494"
       inkscape:connector-curvature="0"
>
<animateTransform id="anskljdf"
    attributeName="transform"
    attributeType="XML"
    type="rotate"
    from="0 0 0"
    to="360 0 0"
    begin="0s"
    dur="2s"
    repeatCount="1"/>
       />
   </path>






  </g>

</svg>
