<?xml version="1.0" encoding="UTF-8" standalone="no"?>
<!-- Created with Inkscape (http://www.inkscape.org/) -->

<svg
   xmlns:dc="http://purl.org/dc/elements/1.1/"
   xmlns:cc="http://creativecommons.org/ns#"
   xmlns:rdf="http://www.w3.org/1999/02/22-rdf-syntax-ns#"
   xmlns:svg="http://www.w3.org/2000/svg"
   xmlns="http://www.w3.org/2000/svg"
   xmlns:sodipodi="http://sodipodi.sourceforge.net/DTD/sodipodi-0.dtd"
   xmlns:inkscape="http://www.inkscape.org/namespaces/inkscape"
   width="210mm"
   height="297mm"
   viewBox="0 0 744.09448819 1052.3622047"
   id="svg4185"
   version="1.1"
   inkscape:version="0.91 r13725"
   sodipodi:docname="jump2.svg">
  <defs
     id="defs4187" />
  <sodipodi:namedview
     id="base"
     pagecolor="#ffffff"
     bordercolor="#666666"
     borderopacity="1.0"
     inkscape:pageopacity="0.0"
     inkscape:pageshadow="2"
     inkscape:zoom="0.35"
     inkscape:cx="-115"
     inkscape:cy="862.85714"
     inkscape:document-units="px"
     inkscape:current-layer="layer1"
     showgrid="false"
     inkscape:window-width="1646"
     inkscape:window-height="589"
     inkscape:window-x="268"
     inkscape:window-y="216"
     inkscape:window-maximized="0" />
  <metadata
     id="metadata4190">
    <rdf:RDF>
      <cc:Work
         rdf:about="">
        <dc:format>image/svg+xml</dc:format>
        <dc:type
           rdf:resource="http://purl.org/dc/dcmitype/StillImage" />
        <dc:title></dc:title>
      </cc:Work>
    </rdf:RDF>
  </metadata>
  <g
     inkscape:label="Layer 1"
     inkscape:groupmode="layer"
     id="layer1">
    <path
       style="fill:#000000"
       d="m 527.20722,980.27128 c -19.00742,-36.61015 -38.74599,-82.3 -43.86351,-101.53307 -5.11744,-19.23314 -18.75271,-47.24966 -30.30056,-62.25899 -11.54785,-15.00933 -36.99741,-59.94993 -56.55453,-99.86801 -19.55712,-39.91808 -36.12357,-73.39441 -36.81425,-74.39186 -0.69089,-0.99744 -19.11631,1.81303 -40.94582,6.24543 -32.13084,6.52417 -44.57356,6.03078 -65.33181,-2.59061 -32.32393,-13.4249 -100.9529,-62.15289 -100.97325,-71.69315 -0.008,-3.94757 -11.48809,-21.11771 -25.51036,-38.15579 -14.02227,-17.03801 -25.50652,-36.363 -25.52056,-42.94441 -0.014,-6.58135 -4.929657,-11.95571 -10.923602,-11.94292 -5.993944,0.0128 -13.176362,-0.78925 -15.960912,-1.78231 -2.784635,-0.99306 -8.473565,14.28394 -12.642065,33.94891 -4.168585,19.66482 -12.007771,37.23357 -17.42035,39.04148 -7.620425,2.54535 -8.659511,-2.14815 -4.604727,-20.79912 l 5.236393,-24.08623 -18.770298,12.35609 C 3.7969305,534.6346 -0.23365998,535.09598 -0.25976699,522.85773 -0.27066509,517.72539 9.5162424,507.71129 21.489019,500.60437 42.50952,488.12665 51.347797,466.69051 35.457964,466.72441 c -4.448666,0.01 -5.801908,-6.18271 -3.174072,-14.52407 2.627835,-8.34129 1.274593,-14.53355 -3.174073,-14.52407 -11.925551,0.0254 -9.304436,-24.34371 6.64404,-61.77023 7.952152,-18.6614 14.432091,-46.29289 14.399857,-61.40322 -0.03911,-18.32584 10.920915,-48.99207 32.916991,-92.10199 C 135.43264,119.77714 162.82032,85.695273 214.26205,59.143488 258.50428,36.307629 259.95623,36.084533 348.95719,38.447834 c 68.86917,1.828702 94.35614,5.250476 108.66859,14.589581 13.94548,9.099612 20.78872,10.100639 26.9246,3.938537 17.03288,-17.105625 24.11576,7.849056 26.38965,92.976368 l 2.28178,85.42505 25.65033,22.4752 c 14.1077,12.36137 27.68217,31.46174 30.16559,42.4454 2.48335,10.98365 7.7525,19.96336 11.70909,19.95492 3.95666,-0.008 38.2079,-13.34423 76.11381,-29.63512 37.906,-16.29094 72.23419,-27.58124 76.28496,-25.08971 11.01721,6.77657 2.52737,15.84833 -20.01268,21.38464 -11.02095,2.70699 -42.08513,15.06248 -69.03156,27.45664 -44.53327,20.48336 -48.98929,24.50854 -48.94725,44.21429 0.0254,11.92366 -6.073,31.88664 -13.55215,44.3622 -7.47908,12.47557 -15.64665,34.37491 -18.1502,48.66521 -2.60691,14.88078 -13.68703,34.772 -25.93189,46.55349 -14.62027,14.0671 -22.8766,30.69768 -26.11327,52.59993 -3.22585,21.82894 -9.98378,35.48519 -21.22061,42.88217 l -16.48737,10.85331 13.33085,34.1486 c 7.33193,18.78174 20.57073,60.28866 29.41958,92.23762 8.84877,31.94896 19.04218,61.79964 22.65202,66.33494 3.60982,4.53522 10.96435,29.04031 16.34331,54.45577 5.37905,25.41537 16.78517,57.63795 25.34711,71.60561 15.86432,25.88076 20.00728,43.55572 10.21104,43.56333 -10.4284,0.007 -44.00176,-69.13577 -49.33422,-101.60322 -2.95229,-17.97561 -11.16202,-44.1136 -18.24379,-58.08442 -7.08175,-13.97083 -19.99837,-51.54182 -28.70358,-83.49108 -8.70528,-31.94928 -21.19752,-70.54493 -27.76066,-85.76819 -12.84086,-29.78457 -18.80906,-30.64573 -68.61618,-9.9001 l -20.96804,8.73358 39.58895,77.747 c 21.77383,42.76082 46.53848,86.54324 55.03246,97.29428 8.49389,10.75105 20.70494,37.82021 27.13553,60.15362 6.43061,22.33347 26.08738,68.54232 43.68164,102.68633 33.60458,65.21389 36.06462,72.18509 25.48143,72.20769 -3.59143,0.012 -22.08142,-29.9399 -41.08884,-66.55002 z M 325.13997,628.84262 c 19.6378,-3.97117 22.1975,-7.71106 25.45708,-37.19519 3.98976,-36.08865 28.45175,-68.93155 41.59433,-55.845 5.19112,5.16903 2.97091,11.64885 -7.14024,20.83865 -13.34099,12.12523 -21.11159,54.691 -9.97978,54.66725 13.46813,-0.0287 60.74466,-17.79958 60.73394,-22.82933 -0.0259,-12.1284 -25.90264,-61.76888 -45.61646,-87.50794 -18.53666,-24.20218 -22.99256,-26.35464 -47.47364,-22.93207 -32.8883,4.59789 -62.57693,18.21021 -52.814,24.21524 10.36798,6.37727 1.20946,34.4958 -12.88995,39.57477 -6.61843,2.38409 -16.38279,6.33798 -21.69853,8.78643 -6.77693,3.12145 -8.9554,-0.35941 -7.29027,-11.64878 2.04614,-13.87289 -3.37499,-17.87387 -39.18436,-28.91917 -22.85745,-7.05035 -53.12654,-19.61061 -67.26466,-27.91164 -23.86962,-14.01492 -25.70359,-14.16591 -25.67788,-2.1149 0.0153,7.13788 11.03184,25.80344 24.48146,41.47896 13.44954,15.67543 26.7907,35.8521 29.64693,44.83696 2.85616,8.98486 7.53514,16.33112 10.39756,16.32501 2.86242,-0.006 22.99014,11.39399 44.7283,25.33355 39.37125,25.24676 58.5056,29.23615 99.99017,20.8472 z m -43.75928,-21.64696 c -9.20333,-9.16423 2.51459,-17.4891 24.68382,-17.53638 14.32509,-0.0305 20.94166,3.1163 19.01007,9.04122 -3.27077,10.03318 -35.79814,16.35729 -43.69389,8.49516 z M 312.0942,495.19598 c -0.008,-3.99596 3.25392,-7.27235 7.24989,-7.28088 3.99596,-0.008 7.27236,3.25392 7.28088,7.24989 0.008,3.99596 -3.25393,7.27236 -7.24989,7.28088 -3.99596,0.008 -7.27235,-3.25393 -7.28088,-7.24989 z m 179.64909,47.38306 c 4.96514,-20.25676 17.86349,-45.3313 29.88806,-58.10252 11.63434,-12.35685 23.23887,-34.40331 25.78777,-48.9921 2.54898,-14.58888 9.44355,-30.53375 15.32129,-35.43307 5.87781,-4.89933 10.66664,-18.39977 10.64189,-30.00098 -0.0448,-21.01897 -0.12049,-21.05398 -21.45642,-9.96292 -11.77624,6.1216 -24.6275,16.85867 -28.55828,23.8601 -5.4723,9.74712 -9.16698,10.73924 -15.76826,4.23427 -4.74171,-4.67258 -13.12341,-6.75702 -18.62591,-4.63199 -5.50251,2.12495 -10.01259,0.0794 -10.02247,-4.54981 -0.016,-7.4808 19.97177,-18.11358 70.27449,-37.38343 15.7965,-6.05128 15.80454,-6.16623 2.36685,-33.65229 -7.41612,-15.16912 -23.59255,-37.16132 -35.94775,-48.87153 -17.73164,-16.80596 -22.4769,-27.36426 -22.52544,-50.11952 l -0.0615,-28.82831 -15.55603,13.87373 c -8.55583,7.63051 -22.06074,28.6 -30.01097,46.59887 -16.66731,37.7342 -75.80243,123.6738 -85.1136,123.69366 -25.3155,0.054 -79.73936,-54.23351 -79.79345,-79.59362 -0.008,-4.08162 -3.28526,-7.41417 -7.28122,-7.40566 -3.99596,0.008 -7.25872,3.14289 -7.25057,6.96521 0.008,3.82231 -12.99216,21.0146 -28.88957,38.20506 -15.89749,17.19047 -28.93965,33.87442 -28.98258,37.07536 -0.11153,8.32241 -50.86047,28.54817 -61.4753,24.5008 -4.88953,-1.86434 -14.10538,5.48227 -20.47967,16.32585 -17.11277,29.11125 -3.28103,50.86434 48.07979,75.61464 34.01372,16.39103 44.37655,18.64975 52.914,11.53345 7.71546,-6.43109 15.17469,-6.78426 27.29633,-1.29248 13.42384,6.08181 18.22927,5.06384 24.61785,-5.21466 4.65742,-7.49317 20.7681,-14.52029 38.98149,-17.00278 35.88495,-4.89113 48.00899,-17.9587 71.88616,-77.48056 17.2556,-43.01525 32.56891,-64.51447 40.3987,-56.71802 4.75988,4.73963 -4.78734,29.3907 -36.44011,94.08963 l -16.77124,34.2806 23.51556,27.46107 c 12.93349,15.10359 30.50242,43.22949 39.04196,62.50205 20.42646,46.0996 37.80666,44.16051 49.99815,-5.5781 z M 479.02758,414.92029 c -0.008,-3.99595 3.25392,-7.27235 7.24989,-7.28087 3.99596,-0.008 7.27235,3.25392 7.28088,7.24989 0.008,3.99596 -3.25392,7.27235 -7.24989,7.28087 -3.99596,0.008 -7.27235,-3.25392 -7.28088,-7.24989 z M 56.161936,382.9357 c -2.241715,-2.2321 -6.295615,1.80885 -9.00871,8.97994 -3.920689,10.36296 -3.084405,11.19576 4.075842,4.05841 4.954798,-4.93892 7.174584,-10.80619 4.932868,-13.03835 z m 62.752544,-43.10046 c -9.29196,-61.07485 47.20391,-193.06793 82.66959,-193.14359 6.84952,-0.0147 25.50771,9.5307 41.46279,21.2118 l 29.0091,21.23837 12.01895,-34.07052 c 6.61049,-18.73876 23.21049,-46.34119 36.88899,-61.338737 29.15472,-31.966168 54.91408,-35.384055 98.80555,-13.110151 23.84913,12.102803 29.3638,12.716221 36.51544,4.061517 16.81888,-20.353695 -18.90866,-29.312976 -116.06676,-29.105731 -87.1515,0.18591 -92.22718,1.042065 -125.74567,21.20956 -19.21054,11.558636 -40.20968,29.585332 -46.66476,40.059342 -6.45499,10.47393 -17.48145,25.61782 -24.50319,33.65308 -19.69642,22.53946 -70.437321,125.42568 -75.605903,153.30446 -2.540481,13.7032 -2.437228,39.25595 0.229381,56.7839 4.111236,27.02273 7.006838,31.29973 19.041188,28.12523 8.864771,-2.33839 14.200434,-0.0884 14.213394,5.98552 0.0109,5.37028 5.0848,2.46645 11.32363,-6.48122 8.28803,-11.88676 9.9973,-24.7919 6.40814,-48.38283 z m 94.72864,-17.12627 c 35.52197,-39.94279 46.33809,-62.64654 46.6885,-98.00212 0.25107,-25.35408 -2.02853,-28.283 -33.44727,-42.96979 -32.73486,-15.30206 -34.00449,-15.36597 -43.59216,-2.19519 -16.54154,22.72352 -40.42582,92.40282 -44.18396,128.90111 -6.72882,65.34877 23.89354,71.20992 74.53489,14.26599 z m -36.0851,-66.36426 c -2.34738,-3.77998 -1.17519,-8.7933 2.60486,-11.14068 3.78006,-2.34731 8.79336,-1.17512 11.14068,2.60486 2.34738,3.78006 1.17519,8.79338 -2.60486,11.14076 -3.78006,2.3473 -8.79338,1.17511 -11.14068,-2.60494 z m 216.90193,37.06023 c 18.35862,-27.01202 33.36345,-53.00068 33.34409,-57.75259 -0.0174,-4.75191 13.01025,-23.77775 28.9547,-42.27979 25.48721,-29.57544 28.98056,-38.02756 28.91246,-69.95377 -0.0486,-22.7477 -2.83227,-34.603136 -7.45162,-31.734634 -4.05577,2.518636 -5.47236,7.641822 -3.14794,11.384944 10.04691,16.17907 -22.39912,14.41586 -57.22151,-3.109531 -20.8047,-10.470497 -43.24649,-19.025749 -49.87071,-19.011618 -6.62422,0.01417 -23.3735,13.318982 -37.22067,29.566309 -39.45179,46.2901 -52.50647,122.22725 -29.35423,170.74944 12.98636,27.21675 42.37123,61.29093 52.83673,61.2686 3.76172,-0.008 21.86016,-22.11534 40.2187,-49.12736 z M 384.06614,175.36407 c -0.008,-3.99597 3.25393,-7.27236 7.24989,-7.28089 3.99596,-0.008 7.27237,3.25393 7.28089,7.24989 0.008,3.99596 -3.25393,7.27237 -7.24989,7.28088 -3.99596,0.008 -7.27236,-3.25392 -7.28089,-7.24988 z"
       id="path4174"
       inkscape:connector-curvature="0" />
  </g>
</svg>
