<?xml version="1.0" encoding="UTF-8" standalone="no"?>
<!-- Created with Inkscape (http://www.inkscape.org/) -->

<svg
   xmlns:osb="http://www.openswatchbook.org/uri/2009/osb"
   xmlns:dc="http://purl.org/dc/elements/1.1/"
   xmlns:cc="http://creativecommons.org/ns#"
   xmlns:rdf="http://www.w3.org/1999/02/22-rdf-syntax-ns#"
   xmlns:svg="http://www.w3.org/2000/svg"
   xmlns="http://www.w3.org/2000/svg"
   xmlns:xlink="http://www.w3.org/1999/xlink"
   xmlns:sodipodi="http://sodipodi.sourceforge.net/DTD/sodipodi-0.dtd"
   xmlns:inkscape="http://www.inkscape.org/namespaces/inkscape"
   id="svg2"
   version="1.1"
   inkscape:version="0.91 r13725"
   width="787.5"
   height="1243.75"
   viewBox="0 0 787.5 1243.75"
   sodipodi:docname="little_girl.svg">
  <metadata
     id="metadata8">
    <rdf:RDF>
      <cc:Work
         rdf:about="">
        <dc:format>image/svg+xml</dc:format>
        <dc:type
           rdf:resource="http://purl.org/dc/dcmitype/StillImage" />
        <dc:title></dc:title>
      </cc:Work>
    </rdf:RDF>
  </metadata>
  <defs
     id="defs6">
    <inkscape:path-effect
       effect="clone_original"
       id="path-effect5580"
       is_visible="true"
       linkedpath="" />
    <linearGradient
       id="linearGradient5574"
       osb:paint="solid">
      <stop
         style="stop-color:#ff00b5;stop-opacity:1;"
         offset="0"
         id="stop5576" />
    </linearGradient>
    <linearGradient
       inkscape:collect="always"
       xlink:href="#linearGradient5574"
       id="linearGradient5578"
       x1="66.997735"
       y1="655.55188"
       x2="786.75"
       y2="655.55188"
       gradientUnits="userSpaceOnUse" />
    <pattern
       patternUnits="userSpaceOnUse"
       width="718.34767"
       height="1171.2204"
       patternTransform="translate(66.886041,69.453925)"
       id="pattern5583">
      <path
         inkscape:connector-curvature="0"
         d="m 761.76232,1240.1823 c 34.98258,-19.5548 25.9457,-4.6881 0,0 z m -8.96415,-1.0149 c -12.06996,-11.2524 11.28375,3.774 0,0 z m -45.38653,-5.2376 c -13.13845,-30.8336 16.21325,-66.4109 -28.93939,-80.2852 -19.40388,-12.38 -21.63446,-30.2964 -3.18713,-4.8387 52.61548,22.5791 22.55828,44.6596 32.12652,85.1239 z m 15.85647,-3.7482 c 17.5268,-13.8896 37.51155,10.2305 5.31396,-4.4838 -2.14623,-0.1862 -10.54111,17.2448 -5.31396,4.4838 z M 473.75,1224.9652 c 45.09025,0.9665 129.01258,-8.1368 115.20467,-71.6213 6.43155,-18.3569 -25.83794,-78.8915 -1.67221,-35.8439 18.1421,51.096 -5.0675,108.6687 -66.31306,105.852 -15.57408,2.0208 -31.57492,4.0335 -47.2194,1.6132 z m -48.125,-1.7183 c -23.65898,-12.5112 -42.83112,-54.9108 -12.42328,-12.8188 8.13338,17.6006 51.03714,15.7115 45.92252,14.1713 -11.1597,-0.1917 -22.52394,1.2208 -33.49924,-1.3525 z m 38.46129,0.8869 c 8.23912,-1.85 1.599,2.0722 0,0 z M 743.125,1206.91 c -40.64158,-12.11 51.32612,10.3297 38.23745,-12.1803 -3.82138,20.3435 -21.39292,12.8561 -38.23745,12.1803 z m -316.18254,-11.428 c -23.51786,-10.0905 13.48826,-71.3338 -3.77951,-23.323 -9.63706,22.795 20.36121,34.0081 38.71205,31.1789 -12.84601,-0.8937 -26.34416,4.8238 -34.93254,-7.8559 z m 37.14383,7.4018 c 8.23912,-1.85 1.599,2.0722 0,0 z m 24.03871,-0.4604 c 46.84688,3.388 99.7739,-20.4493 76.04762,-75.3072 -21.83542,-38.8025 -61.80939,30.2955 -97.6961,24.571 -17.16006,18.1323 -58.33397,-12.0228 -19.56202,5.1898 40.38148,-6.873 74.494,-36.2719 110.25095,-45.9624 30.77515,42.994 5.79886,101.1986 -52.53585,91.9088 -9.23913,0.9208 -60.85009,1.0125 -16.5046,-0.4 z m 241.17739,-6.4859 c -0.61751,-25.9366 17.40836,-90.1243 5.41145,-33.5414 -1.74437,3.4855 -0.36615,41.6107 -5.41145,33.5414 z m -332.91543,-16.2314 c 9.23484,-24.2978 8.32671,-50.0706 4.32469,-75.4708 -19.66029,7.5115 -47.52114,55.8863 -59.73966,49.9254 20.98454,-2.5887 59.87596,-82.5609 63.10143,-35.1707 4.83811,11.5333 -3.83724,67.8536 -7.68646,60.7161 z m -78.59748,-25.2683 c -23.97153,-5.9774 -29.48177,-29.1027 -6.76996,-3.4062 15.92374,1.2884 34.47979,7.7741 6.76995,3.4062 l 1e-5,0 z m 382.34069,-12.583 c -37.04722,-11.1479 28.65424,-47.1183 -9.36151,-15.7106 -12.51437,2.1768 30.44532,27.5609 9.36151,15.7106 z m 7.86303,-13.7298 c 0.84496,-30.1486 0.74108,32.0815 0,0 z m -260.52009,5.6084 c -4.27226,-48.5668 -25.19669,-93.4071 -31.86589,-141.13244 -12.74797,-26.54861 -22.28239,-65.13318 19.43624,-62.79182 15.85669,-46.3338 -7.19377,-94.51938 -8.93427,-141.39529 7.82791,-42.59727 -33.73661,-110.57568 9.28171,-135.96023 13.36406,-7.63862 -37.80031,22.29615 -15.1364,43.76973 5.41533,52.31283 4.04905,105.37053 18.43085,156.38553 3.81668,36.12695 13.02786,87.93165 -32.43535,91.45623 5.82308,39.95293 18.48745,80.16159 29.49581,120.01019 11.04271,36.7927 1.3713,87.9078 52.33712,55.3516 11.72547,-4.4032 68.71179,-43.4439 29.40837,-15.7912 -18.52124,19.7515 -45.9615,21.4365 -70.01819,30.0977 z m -122.8554,-0.8981 c -13.37935,-7.6678 26.97781,-46.2651 3.4702,-13.0021 -8.67756,34.0759 41.17612,-16.1244 45.19903,-31.0453 16.04648,-14.1746 60.45119,-6.8514 17.97885,-5.7723 -29.95558,4.5177 -32.8424,54.9419 -66.64808,49.8197 z M 295,1131.4487 c 1.6093,-19.1027 40.32206,-60.2526 12.84775,-21.8937 -6.97228,2.2001 -7.81476,22.4357 -12.84775,21.8937 z m 366.34869,-4.3233 c 2.94342,-20.3848 55.27555,-50.4267 16.45857,-19.2099 -5.28916,2.1564 -16.18171,22.2103 -16.45857,19.2099 z m 76.65755,-4.9379 c -7.61142,-8.9678 9.38922,9.2244 0,0 z m -8.33448,-3.125 c -0.72309,-12.8368 4.13511,-1.9983 0,0 z m 0.30149,-9.375 c 1.28456,-18.2561 -12.80936,-69.2408 0.47117,-23.8806 0.0121,7.4542 1.15025,17.9312 -0.47117,23.8806 z m -398.14694,-17.2413 c -5.03873,-7.7071 8.61542,7.9014 0,0 z m 336.98031,-1.3117 c -40.92065,-21.308 -89.5652,-57.7753 -69.23249,-111.25962 9.30758,-25.46299 38.80707,-44.16008 65.85136,-42.37488 47.4886,-12.74656 65.11968,25.00486 65.37757,65.8636 -5.34444,-37.61624 -18.53788,-77.6491 -66.49042,-64.20687 -25.71062,-0.64289 -52.74328,17.83607 -62.63186,41.26044 -20.06018,49.45743 23.04782,80.40943 57.99655,105.13893 18.45464,6.2896 42.40456,7.3537 9.12929,5.5784 z M 208.75,1089.9608 c 4.87995,-4.0757 5.01016,2.2187 0,0 z m 11.25,0.2582 c 33.08732,9.6613 78.98653,-23.472 87.53632,-34.704 -18.11218,29.8379 -54.57813,40.068 -87.53632,34.704 z m 308.3932,-3.0315 c -41.09488,-63.7057 19.96821,18.3067 0,0 z m -362.61321,0.7667 c -44.53237,-14.3306 -65.72296,-86.8489 -19.05809,-110.88585 21.92681,-12.18232 55.74626,2.72392 12.87323,-3.1748 -54.53222,13.83455 -43.59524,89.02525 0.40487,109.21275 11.95478,5.6329 38.89677,8.6341 5.77999,4.8479 z m 407.4186,-2.3689 c -4.70485,-6.6557 8.725,6.7731 0,0 z m -20.33052,-5.0767 c -15.83538,-15.1719 -26.00072,-41.0394 -4.49999,-8.7151 8.09593,8.2731 24.31646,17.3121 4.49999,8.7151 z m -138.88362,-4.5711 c -12.89369,-15.4887 -19.22078,-98.64113 -11.74361,-42.0211 -0.15137,6.0266 21.59672,54.8932 11.74361,42.0211 z m 255.53323,-7.7784 c -15.22677,-21.5928 -57.15736,-28.2524 -49.95564,-60.077 -7.13262,-32.62647 28.28941,-53.16921 56.68986,-48.37456 41.31702,-16.16342 25.53686,50.93656 7.77388,37.0851 45.60364,-22.25234 -6.11189,-47.51822 -33.0486,-32.95588 -47.56565,14.53885 -34.4348,75.14224 5.47701,89.76734 27.21316,37.0587 55.00418,-6.602 49.86157,-36.1041 1.85145,10.9851 -0.96998,66.3712 -36.79808,50.6591 l 0,0 z m -495.72279,-0.8863 c -51.06724,-12.585 -30.92679,-101.99845 19.40108,-64.504 -54.25087,-33.99814 -65.08004,59.5843 -10.70635,63.7207 23.54181,5.5327 109.58213,0.9187 91.9465,-22.4958 -68.74241,-1.5908 -0.962,-75.14506 -17.29787,-114.36254 3.32256,-26.92522 -38.23512,-35.5511 -45.30081,-60.34503 2.9314,-32.3646 51.02943,-38.8354 39.5309,-80.53613 -10.3359,-58.73628 32.23255,-98.47427 80.78967,-121.89437 27.281,-11.22317 28.79887,-7.03583 0.67009,2.37886 -43.06421,23.53166 -89.04593,57.36378 -79.076,112.64051 5.6981,39.34962 -20.05356,57.70064 -40.81719,82.13942 4.20453,28.27972 52.20381,36.43369 45.94945,66.64263 13.12115,38.44417 -29.64355,75.87285 -7.57999,107.33455 16.6654,5.0047 53.79985,3.1414 19.26875,23.0767 -28.94418,13.8619 -65.51399,5.1737 -96.77823,6.2045 z m 548.03628,-5.7103 c 3.02558,-20.8777 12.32356,-81.4297 6.27482,-28.4375 -2.9524,5.5318 -1.42493,31.3497 -6.27482,28.4375 z m -203.04316,-0.7072 c 2.51471,-9.696 11.25404,-7.2119 0,0 z m -203.47551,-5.406 c -19.98091,-17.0007 27.92317,13.2353 0,0 z m 19.01381,-0.3955 c 8.61539,-7.9014 -5.03868,7.7073 0,0 z m -0.0207,-13.7307 c -21.05101,-2.7769 -48.66982,-53.74818 -43.67401,-51.9773 9.304,20.9847 34.00782,47.149 43.67401,51.9773 z m -63.36806,-19.75 c -23.46752,-2.4877 14.29186,-34.9893 11.67279,-1.7227 -7.18632,-29.85063 -28.84482,3.6 -2.84902,2.4048 l -8.82377,-0.6821 z m 422.25,-5.1351 c 22.91071,-12.572 7.33606,3.9576 0,0 z m -10.84695,-2.3755 c -4.66713,-5.7077 8.41874,6.7915 0,0 z m -303.24288,-1.875 c -9.08828,-14.15251 6.22991,5.8198 0,0 z m 13.92458,-1.08 c 14.10598,-6.1939 -8.94389,9.1848 0,0 z m -52.40419,-3.6152 c -6.76863,-10.18789 8.85844,8.8876 0,0 z m 16.27104,-0.4634 c 7.82264,-11.62878 -3.90637,9.2267 0,0 z m -154.11611,-7.34761 c 18.06228,-49.2735 4.3758,9.74171 0,0 z M 376.25,1000.0661 c 7.69968,-18.83967 17.20525,-60.44142 -15.75721,-49.53387 -25.43095,9.23094 -74.63886,-19.14619 -79.80264,0.48577 2.36332,25.77793 -2.29931,43.08164 -0.79047,8.40692 -13.13038,-47.26814 47.98688,6.19709 71.91369,-10.23751 17.02425,-0.0453 39.87296,-5.94421 31.93663,19.09642 0.0398,9.37785 1.23712,29.2384 -7.5,31.78227 z m -36.41292,-5.93399 c 8.88284,-11.39765 -0.95784,5.90279 0,0 z m 16.31831,-1.17676 c -7.34607,-9.75117 11.00387,10.07085 0,0 z M 210.17022,966.12403 c 17.6641,-35.27592 -77.75915,-40.96004 -20.99418,-33.62403 26.50779,-9.73651 23.39706,56.83552 20.99418,33.62403 z m -22.93015,0.45218 c 5.38049,-17.21503 -59.67075,-24.69294 -19.08117,-15.75112 26.94144,-15.16503 22.50922,42.52884 19.08117,15.75112 z M 106.14168,954.64775 C 89.425879,914.94074 113.46621,863.33202 84.267987,826.36685 61.001234,775.72691 68.186858,717.15316 69.330223,662.94477 c 2.289239,-17.82496 -1.059544,-89.97239 5.771554,-77.25872 -4.490206,44.4726 -4.556143,91.05863 -5.650823,136.76178 -0.252625,43.4801 3.146587,88.09134 28.768505,124.91982 7.815211,31.47666 0.06787,88.64558 7.922221,107.2801 z m 10.9985,0.79018 c 16.30511,-37.84505 -0.83689,-86.3163 14.61118,-125.33377 -13.02652,39.29091 5.33876,95.15975 -14.61118,125.33377 l 0,0 z m 35.37896,-22.55456 c 8.25542,-10.46467 9.31605,-4.01298 0,0 z M 313.125,927.89548 c -33.08898,3.81391 -33.54733,-59.36208 -23.01606,-13.15634 24.82299,20.65052 58.62189,9.49414 87.69168,10.76341 64.61769,-2.5513 33.90371,-73.25992 27.41257,-113.8161 -5.21368,-46.0161 -4.78435,-92.56764 -12.40069,-138.31614 -45.64068,9.76091 -99.90146,35.70943 -115.29567,79.47966 -1.30523,36.66195 -0.79265,106.20431 -39.54603,108.4927 44.47505,-16.41557 32.43363,-73.85359 38.50835,-111.46721 2.04864,-30.90504 44.75663,-46.88142 68.10362,-64.29029 27.1909,-11.79639 62.73431,-24.92337 54.53746,20.43413 2.40447,53.81899 6.65616,107.41788 18.64677,159.96765 3.34864,30.18955 6.53518,59.1367 -32.95893,59.87073 -23.48772,4.1652 -47.92574,2.53275 -71.68307,2.0378 z M 247.5,877.43845 c -33.52685,-33.40114 31.22074,22.44527 7.73022,7.22225 L 247.5,877.43845 Z m 16.25,11.22937 c 8.02567,-15.75043 9.22326,-4.9713 0,0 z M 285,886.96573 c -17.25547,-19.81703 6.80529,4.28857 0,0 z M 539.62088,857.1875 c -18.70701,-20.16541 -92.04285,-57.94648 -80.91556,-62.96933 22.53307,26.21839 88.6069,53.03284 89.84769,72.01816 l -4.17404,-4.07398 -4.7581,-4.97485 1e-5,0 z m 23.14659,11.48757 c 10.25439,-12.7189 2.18225,4.29855 0,0 z m -0.60133,-19.69218 c -20.78422,-31.42034 -85.42309,-52.32127 -91.60432,-73.40398 28.6385,31.60894 76.67013,40.3 97.99329,79.35588 l -6.38897,-5.9519 0,0 z M 661.0217,834.947 c -13.09798,-21.92294 -13.62057,-55.43659 -3.42986,-11.89231 -4.69718,-0.76734 12.28883,18.1894 3.42986,11.89231 z m 14.55461,-1.14321 c 8.61545,-7.9014 -5.03871,7.70727 0,0 z M 134.3236,831.16684 c -1.55436,-6.42132 8.64451,5.79508 0,0 z m 13.04691,-3.08534 c 4.67555,-29.31942 11.00202,-10.09907 -2.60313,4.2543 l 2.60313,-4.2543 0,0 z m 530.1724,-7.4565 C 664.29274,771.97042 663.59843,725.29141 682.08026,679.67968 674.96465,619.03629 660.77672,559.03784 665.728,497.5 c 1.25674,-35.65471 -0.56235,-91.11985 2.46871,-115.51048 2.38575,70.10805 -5.04492,140.93962 2.51103,210.67205 5.12421,40.88802 22.93316,85.37658 4.77621,125.03821 -19.9384,25.75233 5.73442,83.06635 2.05896,102.92522 z M 111.51473,809.08623 C 88.87374,785.10054 95.972321,696.61351 92.904157,707.73385 c -1.027255,26.92308 1.112803,94.22383 23.698043,91.34841 6.51264,-29.84561 -18.555844,-70.52275 -19.930657,-94.05187 6.481587,31.49566 38.095657,76.77713 14.843187,104.05584 z M 151.011,788.74764 c 1.02409,-44.73438 2.12742,45.9258 0,0 z m 483.30788,1.56486 c -14.74213,-16.68449 -13.24489,-48.07001 -4.04608,-9.79867 3.0721,3.81296 21.71998,28.71821 4.04608,9.79867 z m -468.38141,-2.91264 c -14.75715,-20.92262 -12.92286,-44.7951 -2.03949,-6.22202 1.48898,2.50605 14.32715,11.0203 2.03949,6.22202 z m 14.13274,-2.09846 c 9.7169,-20.1295 0.30584,-48.39778 5.6694,-71.1613 12.42645,-57.52577 -24.12606,-110.87806 -18.23155,-168.5728 -8.16508,-47.02253 10.84406,-90.86019 21.35456,-135.8019 9.73079,-32.01095 17.33579,-65.19368 29.22932,-95.784 25.76554,-44.72804 56.23869,-88.60812 98.69156,-118.9814 48.92426,-18.22805 81.47676,13.62696 120.91881,37.46767 -24.6046,2.84587 -60.24059,-58.75455 -99.41283,-37.1264 -30.17827,-3.21242 -49.09882,27.95326 -67.51537,47.09833 -32.30272,35.70135 -57.26051,77.99315 -67.04698,125.06045 -14.80707,42.8194 -23.46523,88.17724 -36.12551,131.55148 1.20056,49.61258 0.62063,99.86972 17.68567,147.26813 9.13555,46.12123 -0.18632,94.40407 -2.7884,139.86786 -2.20109,8.18727 -8.19363,-0.40827 -2.42868,-0.88612 z m 271.99108,-8.46112 c 9.84154,-11.37084 -0.1238,5.75323 0,0 z M 150,764.375 c 2.7893,-28.57303 2.7893,28.57303 0,0 z m 450.625,-6.73755 c -32.5087,-31.52341 -15.77754,-85.53389 -22.03819,-126.9221 1.55582,-34.11441 -10.74741,-129.21232 -4.38013,-124.23253 2.10529,61.89787 7.80346,123.80276 7.53417,185.9264 1.78257,21.89501 4.93125,60.33692 18.88415,65.22823 z m 10.625,1.75433 c 18.51411,-13.38078 7.14819,3.58535 0,0 z m -2.93904,-24.09088 c -8.59141,-32.80221 -5.323,-67.29173 -7.35636,-100.9259 28.12209,-31.99951 -7.45301,4.91994 2.02178,25.45084 -2.61992,18.36097 7.48592,109.83424 12.93135,51.86474 -0.24508,-28.20308 -0.74343,-73.1032 1.40399,-91.21561 -1.8117,36.35022 1.0336,75.63675 -0.19719,110.4703 -2.41351,2.18653 -5.0647,6.94737 -8.80357,4.35563 z M 160.10002,708.75 c -5.36114,-19.40781 -9.9591,-117.27283 -4.70603,-57.9469 -1.59275,9.8192 10.05107,70.39012 4.70603,57.9469 z m 4.2958,1.25 c 6.2846,-21.57222 -5.77949,-67.84307 -6.21342,-80 9.95209,23.14601 10.12334,70.64389 6.21342,80 z m -56.61133,-48.75 c -5.54808,-26.79995 -13.209413,-75.27992 0.1735,-89.06461 -15.618568,23.37359 5.07141,88.59776 -0.1735,89.06461 z m 3.47105,7.1875 c 22.22347,-22.37766 -7.06954,-104.06198 -0.16204,-94.90186 4.95757,31.283 23.26935,67.62877 0.16204,94.90186 z M 335.625,656.23195 C 269.55728,644.84421 224.91494,580.45457 210.43602,518.69108 c -12.41804,-61.27784 -12.67045,-127.04264 9.12749,-186.07736 32.35571,-39.32094 53.33139,-97.13516 105.04778,-114.00897 27.8727,-11.82732 70.6875,-6.77618 80.28739,22.27282 -26.47907,-43.9124 -92.43563,-27.20942 -120.00915,6.25358 -28.88838,43.15562 -74.23298,80.847 -76.36365,136.34037 -10.3524,62.96424 -5.96585,131.5359 24.98966,188.2917 24.63563,44.88696 67.92588,84.10233 121.56124,85.22251 -6.48563,0.53871 -13.0084,0.008 -19.45178,-0.75378 z M 442.5,637.55859 c 46.86556,-25.71723 75.70848,-69.31548 103.26179,-113.36463 9.37886,-12.95874 41.3739,-47.91688 14.75766,-13.6448 -35.19988,36.40871 -49.68898,90.97618 -97.55255,114.76281 -5.64208,2.1599 -15.69216,13.57614 -20.4669,12.24662 z M 331.875,633.01825 C 267.55505,613.19767 230.83016,543.39924 227.11247,479.22021 c -5.06092,-47.44841 -4.80951,-100.26218 16.89744,-143.58816 30.10804,-32.45349 45.5989,-86.36471 92.73952,-97.29626 23.76929,-17.45211 70.02778,20.78496 24.30304,-2.08579 -53.64268,-1.83436 -76.36262,50.58735 -104.73836,86.39172 -31.72693,39.0218 -30.96657,94.05774 -29.57851,141.73328 3.56647,64.17725 32.43477,133.42003 93.26093,162.53045 51.39063,18.5834 107.75817,0.81034 146.97628,-34.99642 34.97762,-28.09497 48.2042,-74.79113 81.17385,-105.49065 C 578.37815,448.52363 593.41358,378.1011 530.577,366.6307 492.82317,340.76616 470.2794,299.06383 452.72663,257.85776 c -27.93902,6.82769 -81.9908,24.45106 -91.47834,7.14064 39.67418,23.18242 102.89691,-42.15878 112.27953,30.36678 20.01686,44.46165 60.2412,74.07618 102.7986,94.65113 3.99937,44.32598 -12.11082,89.42732 -44.78399,120.18896 -28.22633,38.69045 -49.19503,84.81619 -95.1738,106.15786 -29.59909,22.49623 -69.58731,19.1389 -104.49363,16.65512 z m 15.51109,-36.70986 c -51.78983,-11.18936 -45.18904,-92.76952 -24.89479,-128.71912 13.20927,-12.75349 -25.38703,37.41691 -11.48,55.16266 -14.18753,52.98346 43.51947,97.06403 88.58234,64.98655 18.62291,-20.23805 32.58295,-66.50909 42.89805,-77.51991 -17.91539,37.62989 -33.76375,103.97679 -89.19165,87.1247 l -5.91395,-1.03486 0,-2e-5 z M 605.19736,582.5 c 1.0939,-5.63425 1.0939,5.63425 0,0 z m -2.59867,-5.72916 c 0.80408,-4.81746 1.26808,5.68949 0,0 z m -252.4308,-2.4462 C 321.01152,559.71269 325.68637,497.56576 345,475.71008 c -18.67012,30.1403 -25.05597,108.03736 29.25942,99.2364 29.31797,-5.82154 35.65995,-73.62315 51.65171,-77.74513 -22.03803,24.2423 -21.33366,90.90392 -66.3979,78.3719 l -9.34534,-1.24863 0,2e-5 z M 606.76409,552.5 c 0.76134,-38.88957 0.76134,38.88957 0,0 z m -529.719685,4.375 c 1.347779,-28.23727 -1.772524,-57.59498 13.902368,-82.54341 15.213417,-29.45849 3.431374,-64.82895 13.003427,-96.1711 -1.12225,-42.30173 -30.575627,-89.25699 2.53527,-130.01208 16.42298,-42.7729 72.56541,-47.38644 93.25863,-82.52341 -13.57899,37.88419 -75.54816,40.47834 -90.75641,83.15386 -25.430867,34.22608 -17.399242,78.46969 -0.33732,113.3055 -9.124945,33.38993 -5.03934,69.09923 -11.108002,102.34588 -19.152131,28.69811 -18.586598,80.51698 -20.794523,101.29974 l 0.29656,-8.85498 0,0 z M 604.20062,551.25 c 0.8555,-21.11282 0.8555,21.11283 0,0 z M 438.65539,496.70535 c -7.34607,-9.75117 11.00387,10.07087 0,0 z m -97.63818,-31.85369 c -7.76192,-12.91193 12.1893,12.05808 0,0 z M 633.46325,419.0861 c -9.88236,-22.24439 -2.43039,-50.32614 -1.26917,-9.04532 1.73034,4.93302 12.24754,32.28387 1.26917,9.04532 z m 5.48138,3.96689 c -7.73953,-24.05732 -8.62187,-52.35084 -0.80357,-10.40194 -0.92555,-0.33388 5.75021,20.82768 0.80357,10.40194 z M 463.6743,405.8587 c -41.46198,-7.87243 -7.01315,-51.69348 7.96218,-38.99833 -51.64999,-1.96072 -7.38762,61.61957 20.31329,29.12288 39.6626,-17.9795 -7.89259,13.42742 -28.27547,9.87545 z m 38.98409,-29.17104 c -27.61718,-11.3305 -24.46208,-15.04766 1.14122,-2.26979 l 3.52554,5.42254 -4.66676,-3.15275 0,0 z M 665.99304,331.25 C 681.7293,272.24712 625.00586,242.0911 602.00947,202.40543 607.54739,153.90589 580.58042,107.45601 532.34162,93.739389 475.68279,78.83381 416.42772,97.236209 359.04607,88.829393 317.47031,92.583801 278.09028,111.61574 245.60199,76.269906 183.76359,47.17661 201.31974,146.09066 197.51402,155.43374 c -12.80705,-43.53135 9.82594,-112.319765 64.2233,-74.548218 25.34355,38.052688 67.79429,-2.345303 103.88768,7.316038 57.359,5.246112 116.88472,-10.618727 172.85794,5.587314 48.83592,14.658476 69.62563,63.217706 65.36065,110.629096 27.28211,35.18984 77.20248,66.34516 63.37624,121.60638 0.11746,8.22721 -0.21762,66.44275 -0.63446,33.34917 -0.19744,-9.37451 -0.39489,-18.74901 -0.59233,-28.12352 z m -97.88655,31.12243 c -46.09708,-20.31516 -75.91125,-64.29455 -92.64744,-110.27764 27.65097,-19.3885 47.88362,-1.53083 52.84577,26.62696 7.01631,25.25895 48.21492,68.37081 45.40446,76.44946 -33.09988,-28.7483 -39.83472,-90.46699 -73.79557,-107.93203 -47.58405,2.12668 11.29751,63.12818 25.95857,82.62459 -0.31938,9.2545 61.34296,37.88312 42.23421,32.50866 z M 349.375,357.95485 c -70.53983,-24.77551 59.67512,22.57753 27.77878,-28.28668 -37.74373,-15.3769 35.81436,9.13567 -1.80875,25.80426 -8.16713,3.3705 -17.32848,3.19716 -25.97003,2.48242 z M 325,337.92232 c 12.3811,-22.17457 15.49703,-11.99989 0,0 z m 312.00039,-13.15853 c -3.94539,-21.2542 -32.50968,-67.6016 -29.23996,-71.59274 12.64645,24.18006 31.69341,62.15516 32.82089,80.89983 l -3.58093,-9.30709 0,0 z M 161.25,334.19494 c 17.02329,-16.52309 41.28185,-75.58337 20.18125,-24.22184 -5.38432,8.80324 -9.58249,20.45993 -20.18125,24.22184 z M 643.70541,322.1875 c 10.97663,-30.34977 -40.15946,-79.45126 -32.70394,-74.2358 34.30438,12.27433 37.28621,67.2879 32.97753,83.28463 l -0.27327,-9.04883 -3.2e-4,0 z m -484.3962,5.9375 c 2.43857,-22.00631 47.50154,-70.37818 15.18843,-26.3858 -3.69904,-0.75157 -16.98749,40.60249 -15.18843,26.3858 z m 184.79227,-0.82975 c 16.89622,-7.18104 23.1472,3.33359 0,0 z m -226.58234,-7.55934 c 4.44389,-18.91734 19.34806,-87.97943 9.71977,-30.04841 -3.53894,7.10067 -5.64501,28.6227 -9.71977,30.04841 z m -4.48368,-5.52229 c -8.84626,-22.73643 27.41493,-84.2 4.91804,-32.07876 -7.47406,3.81271 1.18988,50.29394 -4.91804,32.07876 z m 455.54778,-8.65236 c -15.22715,-19.73745 -36.04938,-77.22534 -10.68852,-23.42634 2.16572,4.185 30.94011,52.99863 10.68852,23.42634 z m 8.7997,-4.31126 c 11.13959,-24.79039 -55.53954,-64.40463 -12.11949,-36.2795 18.73819,1.77012 12.46894,78.35679 12.11949,36.2795 z M 170.7919,260.625 c -7.62289,-5.69595 38.568,-50.09956 6.57531,-11.22838 -15.67632,22.95853 35.54776,-41.41871 3.89295,2.85711 l -5.27503,4.92109 -5.19321,3.45018 -2e-5,0 z M 357.5,253.89906 c 10.22812,-12.74431 4.07615,-0.5858 0,0 z m 15.625,-4.47892 c -6.96841,-6.5078 24.73944,6.70094 0,0 z m 35.625,-5.3252 c 36.64763,-13.22488 42.70565,-4.66653 0,0 z m 148.125,-8.58265 c -19.70926,-2.76575 -41.47987,-30.34216 -12.12826,-7.2905 3.21658,-0.87509 31.86376,16.22078 12.12826,7.2905 z m -2.82439,-6.68427 c -26.92607,-12.78364 -25.08003,-18.43938 1.83757,-1.87261 11.21708,8.89879 14.42545,13.80886 -1.83757,1.87261 z m -92.83228,-4.00941 c -12.5008,-13.99467 -59.09674,-29.17573 -55.25457,-37.48778 18.91937,11.67803 64.24185,40.04398 67.30298,42.06257 -6.4401,3.08161 -8.30334,0.68944 -12.04841,-4.57479 z m -238.55888,-1.90447 c 22.22183,-14.08132 17.15343,-5.26753 -1.03349,2.08586 l 1.03349,-2.08586 0,0 z m 243.97745,-5.22689 c -17.58687,-15.73469 -43.43674,-46.8441 -61.14391,-36.32594 26.55567,-19.62999 64.96988,44.56535 69.581,41.49057 l -8.43709,-5.16463 0,0 z M 219.44071,221.25 c 24.31328,-18.53737 25.95832,-8.61849 0,0 z M 242.5,213.25874 c 5.26937,-4.12663 3.1432,2.21153 0,0 z m 9.72587,-30.71927 c 19.37037,5.67477 79.21538,-58.43132 43.17426,-21.56967 -8.02537,16.72998 -35.68209,21.13064 -43.17426,21.56967 z m 2.80007,-7.95161 c 13.38315,-17.37891 82.3885,-42.1809 27.85693,-16.02663 -7.55559,-0.33332 -51.80233,40.6664 -27.85693,16.02663 z m 240.47571,4.31941 c -24.25667,-7.07953 -30.16955,-21.11958 -2.97681,-3.01777 19.1243,3.421 37.2962,13.1362 2.97681,3.01777 z M 511.25,178.14124 c -21.7314,-8.36653 -53.28371,-21.30572 -8.98451,-6.9523 4.23041,-1.86376 24.2867,16.8275 8.98451,6.9523 z M 374.90436,165.78307 c -37.00244,-23.81109 16.07666,9.8096 25.7797,-4.62864 -7.78806,3.84645 -17.00528,7.24962 -25.7797,4.62864 z m 18.36793,-11.36626 c -12.89936,-14.54654 -49.42053,3.72057 -16.31853,-9.18567 8.06201,-3.76636 38.09609,22.50592 16.31853,9.18567 z M 222.5,156.41898 c 36.21275,-15.24421 55.18922,-68.044745 0.0237,-57.452036 -4.85639,18.069586 -0.42568,73.926046 -3.49914,25.154636 -18.39384,-62.502236 84.32353,-9.60525 26.91289,15.65684 -7.03678,5.06281 -15.81557,15.27394 -23.43747,16.64056 z m 206.30069,-3.98422 c -17.59752,-13.90013 42.42143,17.90931 0,0 l 0,0 z m 19.14467,4.24105 c -32.90933,-12.26642 -24.26686,-24.13435 0,0 z m 116.53209,-11.70176 c -25.21667,-35.35392 29.48963,34.39476 0.80217,-4.4421 -22.35527,-36.92654 29.50077,40.0385 -0.80217,4.4421 z"
         id="path4138"
         inkscape:original-d="m 761.76232,1240.1823 c 34.98258,-19.5548 25.9457,-4.6881 0,0 z m -8.96415,-1.0149 c -12.06996,-11.2524 11.28375,3.774 0,0 z m -45.38653,-5.2376 c -13.13845,-30.8336 16.21325,-66.4109 -28.93939,-80.2852 -19.40388,-12.38 -21.63446,-30.2964 -3.18713,-4.8387 52.61548,22.5791 22.55828,44.6596 32.12652,85.1239 z m 15.85647,-3.7482 c 17.5268,-13.8896 37.51155,10.2305 5.31396,-4.4838 -2.14623,-0.1862 -10.54111,17.2448 -5.31396,4.4838 z M 473.75,1224.9652 c 45.09025,0.9665 129.01258,-8.1368 115.20467,-71.6213 6.43155,-18.3569 -25.83794,-78.8915 -1.67221,-35.8439 18.1421,51.096 -5.0675,108.6687 -66.31306,105.852 -15.57408,2.0208 -31.57492,4.0335 -47.2194,1.6132 z m -48.125,-1.7183 c -23.65898,-12.5112 -42.83112,-54.9108 -12.42328,-12.8188 8.13338,17.6006 51.03714,15.7115 45.92252,14.1713 -11.1597,-0.1917 -22.52394,1.2208 -33.49924,-1.3525 z m 38.46129,0.8869 c 8.23912,-1.85 1.599,2.0722 0,0 z M 743.125,1206.91 c -40.64158,-12.11 51.32612,10.3297 38.23745,-12.1803 -3.82138,20.3435 -21.39292,12.8561 -38.23745,12.1803 z m -316.18254,-11.428 c -23.51786,-10.0905 13.48826,-71.3338 -3.77951,-23.323 -9.63706,22.795 20.36121,34.0081 38.71205,31.1789 -12.84601,-0.8937 -26.34416,4.8238 -34.93254,-7.8559 z m 37.14383,7.4018 c 8.23912,-1.85 1.599,2.0722 0,0 z m 24.03871,-0.4604 c 46.84688,3.388 99.7739,-20.4493 76.04762,-75.3072 -21.83542,-38.8025 -61.80939,30.2955 -97.6961,24.571 -17.16006,18.1323 -58.33397,-12.0228 -19.56202,5.1898 40.38148,-6.873 74.494,-36.2719 110.25095,-45.9624 30.77515,42.994 5.79886,101.1986 -52.53585,91.9088 -9.23913,0.9208 -60.85009,1.0125 -16.5046,-0.4 z m 241.17739,-6.4859 c -0.61751,-25.9366 17.40836,-90.1243 5.41145,-33.5414 -1.74437,3.4855 -0.36615,41.6107 -5.41145,33.5414 z m -332.91543,-16.2314 c 9.23484,-24.2978 8.32671,-50.0706 4.32469,-75.4708 -19.66029,7.5115 -47.52114,55.8863 -59.73966,49.9254 20.98454,-2.5887 59.87596,-82.5609 63.10143,-35.1707 4.83811,11.5333 -3.83724,67.8536 -7.68646,60.7161 z m -78.59748,-25.2683 c -23.97153,-5.9774 -29.48177,-29.1027 -6.76996,-3.4062 15.92374,1.2884 34.47979,7.7741 6.76995,3.4062 l 1e-5,0 z m 382.34069,-12.583 c -37.04722,-11.1479 28.65424,-47.1183 -9.36151,-15.7106 -12.51437,2.1768 30.44532,27.5609 9.36151,15.7106 z m 7.86303,-13.7298 c 0.84496,-30.1486 0.74108,32.0815 0,0 z m -260.52009,5.6084 c -4.27226,-48.5668 -25.19669,-93.4071 -31.86589,-141.13244 -12.74797,-26.54861 -22.28239,-65.13318 19.43624,-62.79182 15.85669,-46.3338 -7.19377,-94.51938 -8.93427,-141.39529 7.82791,-42.59727 -33.73661,-110.57568 9.28171,-135.96023 13.36406,-7.63862 -37.80031,22.29615 -15.1364,43.76973 5.41533,52.31283 4.04905,105.37053 18.43085,156.38553 3.81668,36.12695 13.02786,87.93165 -32.43535,91.45623 5.82308,39.95293 18.48745,80.16159 29.49581,120.01019 11.04271,36.7927 1.3713,87.9078 52.33712,55.3516 11.72547,-4.4032 68.71179,-43.4439 29.40837,-15.7912 -18.52124,19.7515 -45.9615,21.4365 -70.01819,30.0977 z m -122.8554,-0.8981 c -13.37935,-7.6678 26.97781,-46.2651 3.4702,-13.0021 -8.67756,34.0759 41.17612,-16.1244 45.19903,-31.0453 16.04648,-14.1746 60.45119,-6.8514 17.97885,-5.7723 -29.95558,4.5177 -32.8424,54.9419 -66.64808,49.8197 z M 295,1131.4487 c 1.6093,-19.1027 40.32206,-60.2526 12.84775,-21.8937 -6.97228,2.2001 -7.81476,22.4357 -12.84775,21.8937 z m 366.34869,-4.3233 c 2.94342,-20.3848 55.27555,-50.4267 16.45857,-19.2099 -5.28916,2.1564 -16.18171,22.2103 -16.45857,19.2099 z m 76.65755,-4.9379 c -7.61142,-8.9678 9.38922,9.2244 0,0 z m -8.33448,-3.125 c -0.72309,-12.8368 4.13511,-1.9983 0,0 z m 0.30149,-9.375 c 1.28456,-18.2561 -12.80936,-69.2408 0.47117,-23.8806 0.0121,7.4542 1.15025,17.9312 -0.47117,23.8806 z m -398.14694,-17.2413 c -5.03873,-7.7071 8.61542,7.9014 0,0 z m 336.98031,-1.3117 c -40.92065,-21.308 -89.5652,-57.7753 -69.23249,-111.25962 9.30758,-25.46299 38.80707,-44.16008 65.85136,-42.37488 47.4886,-12.74656 65.11968,25.00486 65.37757,65.8636 -5.34444,-37.61624 -18.53788,-77.6491 -66.49042,-64.20687 -25.71062,-0.64289 -52.74328,17.83607 -62.63186,41.26044 -20.06018,49.45743 23.04782,80.40943 57.99655,105.13893 18.45464,6.2896 42.40456,7.3537 9.12929,5.5784 z M 208.75,1089.9608 c 4.87995,-4.0757 5.01016,2.2187 0,0 z m 11.25,0.2582 c 33.08732,9.6613 78.98653,-23.472 87.53632,-34.704 -18.11218,29.8379 -54.57813,40.068 -87.53632,34.704 z m 308.3932,-3.0315 c -41.09488,-63.7057 19.96821,18.3067 0,0 z m -362.61321,0.7667 c -44.53237,-14.3306 -65.72296,-86.8489 -19.05809,-110.88585 21.92681,-12.18232 55.74626,2.72392 12.87323,-3.1748 -54.53222,13.83455 -43.59524,89.02525 0.40487,109.21275 11.95478,5.6329 38.89677,8.6341 5.77999,4.8479 z m 407.4186,-2.3689 c -4.70485,-6.6557 8.725,6.7731 0,0 z m -20.33052,-5.0767 c -15.83538,-15.1719 -26.00072,-41.0394 -4.49999,-8.7151 8.09593,8.2731 24.31646,17.3121 4.49999,8.7151 z m -138.88362,-4.5711 c -12.89369,-15.4887 -19.22078,-98.64113 -11.74361,-42.0211 -0.15137,6.0266 21.59672,54.8932 11.74361,42.0211 z m 255.53323,-7.7784 c -15.22677,-21.5928 -57.15736,-28.2524 -49.95564,-60.077 -7.13262,-32.62647 28.28941,-53.16921 56.68986,-48.37456 41.31702,-16.16342 25.53686,50.93656 7.77388,37.0851 45.60364,-22.25234 -6.11189,-47.51822 -33.0486,-32.95588 -47.56565,14.53885 -34.4348,75.14224 5.47701,89.76734 27.21316,37.0587 55.00418,-6.602 49.86157,-36.1041 1.85145,10.9851 -0.96998,66.3712 -36.79808,50.6591 l 0,0 z m -495.72279,-0.8863 c -51.06724,-12.585 -30.92679,-101.99845 19.40108,-64.504 -54.25087,-33.99814 -65.08004,59.5843 -10.70635,63.7207 23.54181,5.5327 109.58213,0.9187 91.9465,-22.4958 -68.74241,-1.5908 -0.962,-75.14506 -17.29787,-114.36254 3.32256,-26.92522 -38.23512,-35.5511 -45.30081,-60.34503 2.9314,-32.3646 51.02943,-38.8354 39.5309,-80.53613 -10.3359,-58.73628 32.23255,-98.47427 80.78967,-121.89437 27.281,-11.22317 28.79887,-7.03583 0.67009,2.37886 -43.06421,23.53166 -89.04593,57.36378 -79.076,112.64051 5.6981,39.34962 -20.05356,57.70064 -40.81719,82.13942 4.20453,28.27972 52.20381,36.43369 45.94945,66.64263 13.12115,38.44417 -29.64355,75.87285 -7.57999,107.33455 16.6654,5.0047 53.79985,3.1414 19.26875,23.0767 -28.94418,13.8619 -65.51399,5.1737 -96.77823,6.2045 z m 548.03628,-5.7103 c 3.02558,-20.8777 12.32356,-81.4297 6.27482,-28.4375 -2.9524,5.5318 -1.42493,31.3497 -6.27482,28.4375 z m -203.04316,-0.7072 c 2.51471,-9.696 11.25404,-7.2119 0,0 z m -203.47551,-5.406 c -19.98091,-17.0007 27.92317,13.2353 0,0 z m 19.01381,-0.3955 c 8.61539,-7.9014 -5.03868,7.7073 0,0 z m -0.0207,-13.7307 c -21.05101,-2.7769 -48.66982,-53.74818 -43.67401,-51.9773 9.304,20.9847 34.00782,47.149 43.67401,51.9773 z m -63.36806,-19.75 c -23.46752,-2.4877 14.29186,-34.9893 11.67279,-1.7227 -7.18632,-29.85063 -28.84482,3.6 -2.84902,2.4048 l -8.82377,-0.6821 z m 422.25,-5.1351 c 22.91071,-12.572 7.33606,3.9576 0,0 z m -10.84695,-2.3755 c -4.66713,-5.7077 8.41874,6.7915 0,0 z m -303.24288,-1.875 c -9.08828,-14.15251 6.22991,5.8198 0,0 z m 13.92458,-1.08 c 14.10598,-6.1939 -8.94389,9.1848 0,0 z m -52.40419,-3.6152 c -6.76863,-10.18789 8.85844,8.8876 0,0 z m 16.27104,-0.4634 c 7.82264,-11.62878 -3.90637,9.2267 0,0 z m -154.11611,-7.34761 c 18.06228,-49.2735 4.3758,9.74171 0,0 z M 376.25,1000.0661 c 7.69968,-18.83967 17.20525,-60.44142 -15.75721,-49.53387 -25.43095,9.23094 -74.63886,-19.14619 -79.80264,0.48577 2.36332,25.77793 -2.29931,43.08164 -0.79047,8.40692 -13.13038,-47.26814 47.98688,6.19709 71.91369,-10.23751 17.02425,-0.0453 39.87296,-5.94421 31.93663,19.09642 0.0398,9.37785 1.23712,29.2384 -7.5,31.78227 z m -36.41292,-5.93399 c 8.88284,-11.39765 -0.95784,5.90279 0,0 z m 16.31831,-1.17676 c -7.34607,-9.75117 11.00387,10.07085 0,0 z M 210.17022,966.12403 c 17.6641,-35.27592 -77.75915,-40.96004 -20.99418,-33.62403 26.50779,-9.73651 23.39706,56.83552 20.99418,33.62403 z m -22.93015,0.45218 c 5.38049,-17.21503 -59.67075,-24.69294 -19.08117,-15.75112 26.94144,-15.16503 22.50922,42.52884 19.08117,15.75112 z M 106.14168,954.64775 C 89.425879,914.94074 113.46621,863.33202 84.267987,826.36685 61.001234,775.72691 68.186858,717.15316 69.330223,662.94477 c 2.289239,-17.82496 -1.059544,-89.97239 5.771554,-77.25872 -4.490206,44.4726 -4.556143,91.05863 -5.650823,136.76178 -0.252625,43.4801 3.146587,88.09134 28.768505,124.91982 7.815211,31.47666 0.06787,88.64558 7.922221,107.2801 z m 10.9985,0.79018 c 16.30511,-37.84505 -0.83689,-86.3163 14.61118,-125.33377 -13.02652,39.29091 5.33876,95.15975 -14.61118,125.33377 l 0,0 z m 35.37896,-22.55456 c 8.25542,-10.46467 9.31605,-4.01298 0,0 z M 313.125,927.89548 c -33.08898,3.81391 -33.54733,-59.36208 -23.01606,-13.15634 24.82299,20.65052 58.62189,9.49414 87.69168,10.76341 64.61769,-2.5513 33.90371,-73.25992 27.41257,-113.8161 -5.21368,-46.0161 -4.78435,-92.56764 -12.40069,-138.31614 -45.64068,9.76091 -99.90146,35.70943 -115.29567,79.47966 -1.30523,36.66195 -0.79265,106.20431 -39.54603,108.4927 44.47505,-16.41557 32.43363,-73.85359 38.50835,-111.46721 2.04864,-30.90504 44.75663,-46.88142 68.10362,-64.29029 27.1909,-11.79639 62.73431,-24.92337 54.53746,20.43413 2.40447,53.81899 6.65616,107.41788 18.64677,159.96765 3.34864,30.18955 6.53518,59.1367 -32.95893,59.87073 -23.48772,4.1652 -47.92574,2.53275 -71.68307,2.0378 z M 247.5,877.43845 c -33.52685,-33.40114 31.22074,22.44527 7.73022,7.22225 L 247.5,877.43845 Z m 16.25,11.22937 c 8.02567,-15.75043 9.22326,-4.9713 0,0 z M 285,886.96573 c -17.25547,-19.81703 6.80529,4.28857 0,0 z M 539.62088,857.1875 c -18.70701,-20.16541 -92.04285,-57.94648 -80.91556,-62.96933 22.53307,26.21839 88.6069,53.03284 89.84769,72.01816 l -4.17404,-4.07398 -4.7581,-4.97485 1e-5,0 z m 23.14659,11.48757 c 10.25439,-12.7189 2.18225,4.29855 0,0 z m -0.60133,-19.69218 c -20.78422,-31.42034 -85.42309,-52.32127 -91.60432,-73.40398 28.6385,31.60894 76.67013,40.3 97.99329,79.35588 l -6.38897,-5.9519 0,0 z M 661.0217,834.947 c -13.09798,-21.92294 -13.62057,-55.43659 -3.42986,-11.89231 -4.69718,-0.76734 12.28883,18.1894 3.42986,11.89231 z m 14.55461,-1.14321 c 8.61545,-7.9014 -5.03871,7.70727 0,0 z M 134.3236,831.16684 c -1.55436,-6.42132 8.64451,5.79508 0,0 z m 13.04691,-3.08534 c 4.67555,-29.31942 11.00202,-10.09907 -2.60313,4.2543 l 2.60313,-4.2543 0,0 z m 530.1724,-7.4565 C 664.29274,771.97042 663.59843,725.29141 682.08026,679.67968 674.96465,619.03629 660.77672,559.03784 665.728,497.5 c 1.25674,-35.65471 -0.56235,-91.11985 2.46871,-115.51048 2.38575,70.10805 -5.04492,140.93962 2.51103,210.67205 5.12421,40.88802 22.93316,85.37658 4.77621,125.03821 -19.9384,25.75233 5.73442,83.06635 2.05896,102.92522 z M 111.51473,809.08623 C 88.87374,785.10054 95.972321,696.61351 92.904157,707.73385 c -1.027255,26.92308 1.112803,94.22383 23.698043,91.34841 6.51264,-29.84561 -18.555844,-70.52275 -19.930657,-94.05187 6.481587,31.49566 38.095657,76.77713 14.843187,104.05584 z M 151.011,788.74764 c 1.02409,-44.73438 2.12742,45.9258 0,0 z m 483.30788,1.56486 c -14.74213,-16.68449 -13.24489,-48.07001 -4.04608,-9.79867 3.0721,3.81296 21.71998,28.71821 4.04608,9.79867 z m -468.38141,-2.91264 c -14.75715,-20.92262 -12.92286,-44.7951 -2.03949,-6.22202 1.48898,2.50605 14.32715,11.0203 2.03949,6.22202 z m 14.13274,-2.09846 c 9.7169,-20.1295 0.30584,-48.39778 5.6694,-71.1613 12.42645,-57.52577 -24.12606,-110.87806 -18.23155,-168.5728 -8.16508,-47.02253 10.84406,-90.86019 21.35456,-135.8019 9.73079,-32.01095 17.33579,-65.19368 29.22932,-95.784 25.76554,-44.72804 56.23869,-88.60812 98.69156,-118.9814 48.92426,-18.22805 81.47676,13.62696 120.91881,37.46767 -24.6046,2.84587 -60.24059,-58.75455 -99.41283,-37.1264 -30.17827,-3.21242 -49.09882,27.95326 -67.51537,47.09833 -32.30272,35.70135 -57.26051,77.99315 -67.04698,125.06045 -14.80707,42.8194 -23.46523,88.17724 -36.12551,131.55148 1.20056,49.61258 0.62063,99.86972 17.68567,147.26813 9.13555,46.12123 -0.18632,94.40407 -2.7884,139.86786 -2.20109,8.18727 -8.19363,-0.40827 -2.42868,-0.88612 z m 271.99108,-8.46112 c 9.84154,-11.37084 -0.1238,5.75323 0,0 z M 150,764.375 c 2.7893,-28.57303 2.7893,28.57303 0,0 z m 450.625,-6.73755 c -32.5087,-31.52341 -15.77754,-85.53389 -22.03819,-126.9221 1.55582,-34.11441 -10.74741,-129.21232 -4.38013,-124.23253 2.10529,61.89787 7.80346,123.80276 7.53417,185.9264 1.78257,21.89501 4.93125,60.33692 18.88415,65.22823 z m 10.625,1.75433 c 18.51411,-13.38078 7.14819,3.58535 0,0 z m -2.93904,-24.09088 c -8.59141,-32.80221 -5.323,-67.29173 -7.35636,-100.9259 28.12209,-31.99951 -7.45301,4.91994 2.02178,25.45084 -2.61992,18.36097 7.48592,109.83424 12.93135,51.86474 -0.24508,-28.20308 -0.74343,-73.1032 1.40399,-91.21561 -1.8117,36.35022 1.0336,75.63675 -0.19719,110.4703 -2.41351,2.18653 -5.0647,6.94737 -8.80357,4.35563 z M 160.10002,708.75 c -5.36114,-19.40781 -9.9591,-117.27283 -4.70603,-57.9469 -1.59275,9.8192 10.05107,70.39012 4.70603,57.9469 z m 4.2958,1.25 c 6.2846,-21.57222 -5.77949,-67.84307 -6.21342,-80 9.95209,23.14601 10.12334,70.64389 6.21342,80 z m -56.61133,-48.75 c -5.54808,-26.79995 -13.209413,-75.27992 0.1735,-89.06461 -15.618568,23.37359 5.07141,88.59776 -0.1735,89.06461 z m 3.47105,7.1875 c 22.22347,-22.37766 -7.06954,-104.06198 -0.16204,-94.90186 4.95757,31.283 23.26935,67.62877 0.16204,94.90186 z M 335.625,656.23195 C 269.55728,644.84421 224.91494,580.45457 210.43602,518.69108 c -12.41804,-61.27784 -12.67045,-127.04264 9.12749,-186.07736 32.35571,-39.32094 53.33139,-97.13516 105.04778,-114.00897 27.8727,-11.82732 70.6875,-6.77618 80.28739,22.27282 -26.47907,-43.9124 -92.43563,-27.20942 -120.00915,6.25358 -28.88838,43.15562 -74.23298,80.847 -76.36365,136.34037 -10.3524,62.96424 -5.96585,131.5359 24.98966,188.2917 24.63563,44.88696 67.92588,84.10233 121.56124,85.22251 -6.48563,0.53871 -13.0084,0.008 -19.45178,-0.75378 z M 442.5,637.55859 c 46.86556,-25.71723 75.70848,-69.31548 103.26179,-113.36463 9.37886,-12.95874 41.3739,-47.91688 14.75766,-13.6448 -35.19988,36.40871 -49.68898,90.97618 -97.55255,114.76281 -5.64208,2.1599 -15.69216,13.57614 -20.4669,12.24662 z M 331.875,633.01825 C 267.55505,613.19767 230.83016,543.39924 227.11247,479.22021 c -5.06092,-47.44841 -4.80951,-100.26218 16.89744,-143.58816 30.10804,-32.45349 45.5989,-86.36471 92.73952,-97.29626 23.76929,-17.45211 70.02778,20.78496 24.30304,-2.08579 -53.64268,-1.83436 -76.36262,50.58735 -104.73836,86.39172 -31.72693,39.0218 -30.96657,94.05774 -29.57851,141.73328 3.56647,64.17725 32.43477,133.42003 93.26093,162.53045 51.39063,18.5834 107.75817,0.81034 146.97628,-34.99642 34.97762,-28.09497 48.2042,-74.79113 81.17385,-105.49065 C 578.37815,448.52363 593.41358,378.1011 530.577,366.6307 492.82317,340.76616 470.2794,299.06383 452.72663,257.85776 c -27.93902,6.82769 -81.9908,24.45106 -91.47834,7.14064 39.67418,23.18242 102.89691,-42.15878 112.27953,30.36678 20.01686,44.46165 60.2412,74.07618 102.7986,94.65113 3.99937,44.32598 -12.11082,89.42732 -44.78399,120.18896 -28.22633,38.69045 -49.19503,84.81619 -95.1738,106.15786 -29.59909,22.49623 -69.58731,19.1389 -104.49363,16.65512 z m 15.51109,-36.70986 c -51.78983,-11.18936 -45.18904,-92.76952 -24.89479,-128.71912 13.20927,-12.75349 -25.38703,37.41691 -11.48,55.16266 -14.18753,52.98346 43.51947,97.06403 88.58234,64.98655 18.62291,-20.23805 32.58295,-66.50909 42.89805,-77.51991 -17.91539,37.62989 -33.76375,103.97679 -89.19165,87.1247 l -5.91395,-1.03486 0,-2e-5 z M 605.19736,582.5 c 1.0939,-5.63425 1.0939,5.63425 0,0 z m -2.59867,-5.72916 c 0.80408,-4.81746 1.26808,5.68949 0,0 z m -252.4308,-2.4462 C 321.01152,559.71269 325.68637,497.56576 345,475.71008 c -18.67012,30.1403 -25.05597,108.03736 29.25942,99.2364 29.31797,-5.82154 35.65995,-73.62315 51.65171,-77.74513 -22.03803,24.2423 -21.33366,90.90392 -66.3979,78.3719 l -9.34534,-1.24863 0,2e-5 z M 606.76409,552.5 c 0.76134,-38.88957 0.76134,38.88957 0,0 z m -529.719685,4.375 c 1.347779,-28.23727 -1.772524,-57.59498 13.902368,-82.54341 15.213417,-29.45849 3.431374,-64.82895 13.003427,-96.1711 -1.12225,-42.30173 -30.575627,-89.25699 2.53527,-130.01208 16.42298,-42.7729 72.56541,-47.38644 93.25863,-82.52341 -13.57899,37.88419 -75.54816,40.47834 -90.75641,83.15386 -25.430867,34.22608 -17.399242,78.46969 -0.33732,113.3055 -9.124945,33.38993 -5.03934,69.09923 -11.108002,102.34588 -19.152131,28.69811 -18.586598,80.51698 -20.794523,101.29974 l 0.29656,-8.85498 0,0 z M 604.20062,551.25 c 0.8555,-21.11282 0.8555,21.11283 0,0 z M 438.65539,496.70535 c -7.34607,-9.75117 11.00387,10.07087 0,0 z m -97.63818,-31.85369 c -7.76192,-12.91193 12.1893,12.05808 0,0 z M 633.46325,419.0861 c -9.88236,-22.24439 -2.43039,-50.32614 -1.26917,-9.04532 1.73034,4.93302 12.24754,32.28387 1.26917,9.04532 z m 5.48138,3.96689 c -7.73953,-24.05732 -8.62187,-52.35084 -0.80357,-10.40194 -0.92555,-0.33388 5.75021,20.82768 0.80357,10.40194 z M 463.6743,405.8587 c -41.46198,-7.87243 -7.01315,-51.69348 7.96218,-38.99833 -51.64999,-1.96072 -7.38762,61.61957 20.31329,29.12288 39.6626,-17.9795 -7.89259,13.42742 -28.27547,9.87545 z m 38.98409,-29.17104 c -27.61718,-11.3305 -24.46208,-15.04766 1.14122,-2.26979 l 3.52554,5.42254 -4.66676,-3.15275 0,0 z M 665.99304,331.25 C 681.7293,272.24712 625.00586,242.0911 602.00947,202.40543 607.54739,153.90589 580.58042,107.45601 532.34162,93.739389 475.68279,78.83381 416.42772,97.236209 359.04607,88.829393 317.47031,92.583801 278.09028,111.61574 245.60199,76.269906 183.76359,47.17661 201.31974,146.09066 197.51402,155.43374 c -12.80705,-43.53135 9.82594,-112.319765 64.2233,-74.548218 25.34355,38.052688 67.79429,-2.345303 103.88768,7.316038 57.359,5.246112 116.88472,-10.618727 172.85794,5.587314 48.83592,14.658476 69.62563,63.217706 65.36065,110.629096 27.28211,35.18984 77.20248,66.34516 63.37624,121.60638 0.11746,8.22721 -0.21762,66.44275 -0.63446,33.34917 -0.19744,-9.37451 -0.39489,-18.74901 -0.59233,-28.12352 z m -97.88655,31.12243 c -46.09708,-20.31516 -75.91125,-64.29455 -92.64744,-110.27764 27.65097,-19.3885 47.88362,-1.53083 52.84577,26.62696 7.01631,25.25895 48.21492,68.37081 45.40446,76.44946 -33.09988,-28.7483 -39.83472,-90.46699 -73.79557,-107.93203 -47.58405,2.12668 11.29751,63.12818 25.95857,82.62459 -0.31938,9.2545 61.34296,37.88312 42.23421,32.50866 z M 349.375,357.95485 c -70.53983,-24.77551 59.67512,22.57753 27.77878,-28.28668 -37.74373,-15.3769 35.81436,9.13567 -1.80875,25.80426 -8.16713,3.3705 -17.32848,3.19716 -25.97003,2.48242 z M 325,337.92232 c 12.3811,-22.17457 15.49703,-11.99989 0,0 z m 312.00039,-13.15853 c -3.94539,-21.2542 -32.50968,-67.6016 -29.23996,-71.59274 12.64645,24.18006 31.69341,62.15516 32.82089,80.89983 l -3.58093,-9.30709 0,0 z M 161.25,334.19494 c 17.02329,-16.52309 41.28185,-75.58337 20.18125,-24.22184 -5.38432,8.80324 -9.58249,20.45993 -20.18125,24.22184 z M 643.70541,322.1875 c 10.97663,-30.34977 -40.15946,-79.45126 -32.70394,-74.2358 34.30438,12.27433 37.28621,67.2879 32.97753,83.28463 l -0.27327,-9.04883 -3.2e-4,0 z m -484.3962,5.9375 c 2.43857,-22.00631 47.50154,-70.37818 15.18843,-26.3858 -3.69904,-0.75157 -16.98749,40.60249 -15.18843,26.3858 z m 184.79227,-0.82975 c 16.89622,-7.18104 23.1472,3.33359 0,0 z m -226.58234,-7.55934 c 4.44389,-18.91734 19.34806,-87.97943 9.71977,-30.04841 -3.53894,7.10067 -5.64501,28.6227 -9.71977,30.04841 z m -4.48368,-5.52229 c -8.84626,-22.73643 27.41493,-84.2 4.91804,-32.07876 -7.47406,3.81271 1.18988,50.29394 -4.91804,32.07876 z m 455.54778,-8.65236 c -15.22715,-19.73745 -36.04938,-77.22534 -10.68852,-23.42634 2.16572,4.185 30.94011,52.99863 10.68852,23.42634 z m 8.7997,-4.31126 c 11.13959,-24.79039 -55.53954,-64.40463 -12.11949,-36.2795 18.73819,1.77012 12.46894,78.35679 12.11949,36.2795 z M 170.7919,260.625 c -7.62289,-5.69595 38.568,-50.09956 6.57531,-11.22838 -15.67632,22.95853 35.54776,-41.41871 3.89295,2.85711 l -5.27503,4.92109 -5.19321,3.45018 -2e-5,0 z M 357.5,253.89906 c 10.22812,-12.74431 4.07615,-0.5858 0,0 z m 15.625,-4.47892 c -6.96841,-6.5078 24.73944,6.70094 0,0 z m 35.625,-5.3252 c 36.64763,-13.22488 42.70565,-4.66653 0,0 z m 148.125,-8.58265 c -19.70926,-2.76575 -41.47987,-30.34216 -12.12826,-7.2905 3.21658,-0.87509 31.86376,16.22078 12.12826,7.2905 z m -2.82439,-6.68427 c -26.92607,-12.78364 -25.08003,-18.43938 1.83757,-1.87261 11.21708,8.89879 14.42545,13.80886 -1.83757,1.87261 z m -92.83228,-4.00941 c -12.5008,-13.99467 -59.09674,-29.17573 -55.25457,-37.48778 18.91937,11.67803 64.24185,40.04398 67.30298,42.06257 -6.4401,3.08161 -8.30334,0.68944 -12.04841,-4.57479 z m -238.55888,-1.90447 c 22.22183,-14.08132 17.15343,-5.26753 -1.03349,2.08586 l 1.03349,-2.08586 0,0 z m 243.97745,-5.22689 c -17.58687,-15.73469 -43.43674,-46.8441 -61.14391,-36.32594 26.55567,-19.62999 64.96988,44.56535 69.581,41.49057 l -8.43709,-5.16463 0,0 z M 219.44071,221.25 c 24.31328,-18.53737 25.95832,-8.61849 0,0 z M 242.5,213.25874 c 5.26937,-4.12663 3.1432,2.21153 0,0 z m 9.72587,-30.71927 c 19.37037,5.67477 79.21538,-58.43132 43.17426,-21.56967 -8.02537,16.72998 -35.68209,21.13064 -43.17426,21.56967 z m 2.80007,-7.95161 c 13.38315,-17.37891 82.3885,-42.1809 27.85693,-16.02663 -7.55559,-0.33332 -51.80233,40.6664 -27.85693,16.02663 z m 240.47571,4.31941 c -24.25667,-7.07953 -30.16955,-21.11958 -2.97681,-3.01777 19.1243,3.421 37.2962,13.1362 2.97681,3.01777 z M 511.25,178.14124 c -21.7314,-8.36653 -53.28371,-21.30572 -8.98451,-6.9523 4.23041,-1.86376 24.2867,16.8275 8.98451,6.9523 z M 374.90436,165.78307 c -37.00244,-23.81109 16.07666,9.8096 25.7797,-4.62864 -7.78806,3.84645 -17.00528,7.24962 -25.7797,4.62864 z m 18.36793,-11.36626 c -12.89936,-14.54654 -49.42053,3.72057 -16.31853,-9.18567 8.06201,-3.76636 38.09609,22.50592 16.31853,9.18567 z M 222.5,156.41898 c 36.21275,-15.24421 55.18922,-68.044745 0.0237,-57.452036 -4.85639,18.069586 -0.42568,73.926046 -3.49914,25.154636 -18.39384,-62.502236 84.32353,-9.60525 26.91289,15.65684 -7.03678,5.06281 -15.81557,15.27394 -23.43747,16.64056 z m 206.30069,-3.98422 c -17.59752,-13.90013 42.42143,17.90931 0,0 l 0,0 z m 19.14467,4.24105 c -32.90933,-12.26642 -24.26686,-24.13435 0,0 z m 116.53209,-11.70176 c -25.21667,-35.35392 29.48963,34.39476 0.80217,-4.4421 -22.35527,-36.92654 29.50077,40.0385 -0.80217,4.4421 z"
         inkscape:path-effect="#path-effect5580"
         style="opacity:0.95999995;fill:#b300cd;fill-opacity:1;stroke:url(#linearGradient5578);stroke-opacity:0.77160495"
         transform="translate(-66.886041,-69.453925)" />
    </pattern>
  </defs>
  <sodipodi:namedview
     pagecolor="#ffffff"
     bordercolor="#666666"
     borderopacity="1"
     objecttolerance="10"
     gridtolerance="10"
     guidetolerance="10"
     inkscape:pageopacity="0"
     inkscape:pageshadow="2"
     inkscape:window-width="1920"
     inkscape:window-height="1027"
     id="namedview4"
     showgrid="false"
     inkscape:zoom="0.57578254"
     inkscape:cx="484.43683"
     inkscape:cy="580.09042"
     inkscape:window-x="0"
     inkscape:window-y="0"
     inkscape:window-maximized="1"
     inkscape:current-layer="svg2" />
  <image
     sodipodi:absref="/home/papple/Bureau/html/essai/public/images/little_girl.png"
     xlink:href="little_girl.png"
     style="display:none;image-rendering:optimizeQuality"
     y="0"
     x="0"
     id="image10"
     preserveAspectRatio="none"
     height="1243.75"
     width="787.5" />
  <rect
     style="stroke:none;fill:url(#pattern5583)"
     width="718.34767"
     height="1171.2204"
     x="66.886041"
     y="69.453925"
     id="rect5586"
     onmouseover="" />
</svg>
