<?xml version="1.0" encoding="utf-8"?>
<!-- Generator: Adobe Illustrator 15.1.0, SVG Export Plug-In . SVG Version: 6.00 Build 0)  -->
<!DOCTYPE svg PUBLIC "-//W3C//DTD SVG 1.1//EN" "http://www.w3.org/Graphics/SVG/1.1/DTD/svg11.dtd">
<svg version="1.1" id="Calque_1" xmlns="http://www.w3.org/2000/svg" xmlns:xlink="http://www.w3.org/1999/xlink" x="0px" y="0px"
	 width="300px" height="150px" viewBox="0 0 300 150" enable-background="new 0 0 300 150" xml:space="preserve">
<filter  filterUnits="userSpaceOnUse" id="smallShadow">
	<feColorMatrix  type="matrix" in="SourceAlpha" result="greySource" values="0 0 0 0 0  0 0 0 0 0  0 0 0 0 0  .6 .6 .6 .6 0">
		</feColorMatrix>
	<feGaussianBlur  in="greySource" stdDeviation="2" result="flou"></feGaussianBlur>
	<feOffset  in="flou" dy="1" result="Ombre" dx="1"></feOffset>
	<feMerge>
		<feMergeNode  in="Ombre"></feMergeNode>
		<feMergeNode  in="SourceGraphic"></feMergeNode>
	</feMerge>
</filter>
<g filter="url(#smallShadow)">






<!--C-->
	<path fill="#CFC7E2" stroke="#040506" stroke-width="0.5" stroke-miterlimit="10" d="M64.436,131.701
		c-1.065,0.521-2.351,0.984-3.854,1.395c-1.505,0.41-3.186,0.779-5.043,1.106c-1.859,0.328-3.801,0.492-5.822,0.492
		c-4.319,0-8.311-0.614-11.972-1.845c-3.663-1.23-6.82-3.102-9.472-5.617c-2.651-2.514-4.729-5.589-6.231-9.225
		c-1.505-3.635-2.255-7.776-2.255-12.424c0-4.646,0.75-8.787,2.255-12.423c1.503-3.635,3.607-6.71,6.313-9.225
		s5.945-4.429,9.718-5.74c3.771-1.312,7.926-1.968,12.464-1.968c3.607,0,6.9,0.369,9.881,1.107c2.979,0.737,5.617,1.627,7.913,2.664
		c-0.438,0.767-0.793,1.805-1.066,3.116c-0.274,1.312-0.492,2.406-0.656,3.28l-0.491,0.164c-0.548-0.656-1.312-1.395-2.297-2.215
		c-0.983-0.819-2.132-1.611-3.443-2.377c-1.312-0.766-2.788-1.407-4.428-1.928c-1.641-0.519-3.444-0.779-5.412-0.779
		c-3.227,0-6.22,0.521-8.979,1.559c-2.761,1.039-5.166,2.639-7.216,4.797c-2.05,2.16-3.649,4.893-4.797,8.2
		c-1.148,3.308-1.722,7.229-1.722,11.767c0,4.539,0.573,8.461,1.722,11.768c1.147,3.309,2.747,6.041,4.797,8.199
		c2.05,2.16,4.455,3.76,7.216,4.797c2.76,1.039,5.753,1.559,8.979,1.559c1.968,0,3.784-0.246,5.453-0.738
		c1.666-0.492,3.197-1.078,4.592-1.763c1.394-0.683,2.65-1.421,3.771-2.214c1.12-0.792,2.063-1.488,2.829-2.091l0.328,0.327
		l-0.738,4.838C66.282,130.705,65.502,131.183,64.436,131.701z">



	<animateTransform id="anskljdf"
		attributeName="transform"
		attributeType="XML"
		type="translate"
		dur="0.7s"
		values="0,-5;0,-10;0,0"
		repeatCount="1"/>
		<animate id="animation2"
             attributeName="opacity"
             from="0" to="1" dur="3s" 
         />

</path>

<!--O-->
	<path fill="#CFC7E2" stroke="#040506" stroke-width="0.5" stroke-miterlimit="10" d="M76.736,93.161
		c1.503-3.635,3.607-6.71,6.313-9.225s5.945-4.429,9.718-5.74c3.771-1.312,7.898-1.968,12.382-1.968
		c4.536,0,8.691,0.656,12.464,1.968c3.771,1.312,7.011,3.226,9.717,5.74s4.81,5.59,6.314,9.225
		c1.503,3.636,2.255,7.777,2.255,12.423c0,4.647-0.752,8.789-2.255,12.424c-1.505,3.636-3.608,6.711-6.314,9.225
		c-2.706,2.516-5.945,4.387-9.717,5.617c-3.772,1.23-7.928,1.845-12.464,1.845c-4.483,0-8.61-0.614-12.382-1.845
		c-3.772-1.23-7.012-3.102-9.718-5.617c-2.706-2.514-4.811-5.589-6.313-9.225c-1.505-3.635-2.255-7.776-2.255-12.424
		C74.481,100.938,75.231,96.797,76.736,93.161z M126.14,93.817c-1.147-3.308-2.746-6.04-4.797-8.2
		c-2.05-2.158-4.456-3.758-7.216-4.797c-2.761-1.037-5.754-1.559-8.979-1.559c-3.172,0-6.138,0.521-8.897,1.559
		c-2.761,1.039-5.166,2.639-7.216,4.797c-2.05,2.16-3.649,4.893-4.797,8.2c-1.148,3.308-1.722,7.229-1.722,11.767
		c0,4.539,0.573,8.461,1.722,11.768c1.147,3.309,2.747,6.041,4.797,8.199c2.05,2.16,4.455,3.76,7.216,4.797
		c2.76,1.039,5.726,1.559,8.897,1.559c3.225,0,6.218-0.52,8.979-1.559c2.76-1.037,5.166-2.637,7.216-4.797
		c2.051-2.158,3.649-4.891,4.797-8.199c1.148-3.307,1.723-7.229,1.723-11.768C127.863,101.047,127.289,97.125,126.14,93.817z">

	<animateTransform id="anskljdf"
		attributeName="transform"
		attributeType="XML"
		type="translate"
		begin="0.5s"
		dur="0.4s"
		values="0,-5;0,-10;0,0"
		repeatCount="1"/>
		<animate id="animation2"
             attributeName="opacity"
             from="0" to="1" dur="3s" 
         />

</path>

<!--Y-->
	<path fill="#CFC7E2" stroke="#040506" stroke-width="0.5" stroke-miterlimit="10" d="M152.586,106.527
		c-1.066-1.775-2.243-3.744-3.526-5.904c-1.285-2.158-2.639-4.428-4.06-6.806c-1.422-2.378-2.774-4.646-4.059-6.806
		c-1.285-2.159-2.447-4.101-3.485-5.822c-1.039-1.723-1.832-3.02-2.378-3.895c0.766,0.109,1.518,0.205,2.255,0.287
		c0.738,0.082,1.489,0.123,2.256,0.123c0.765,0,1.517-0.041,2.255-0.123c0.737-0.082,1.488-0.178,2.255-0.287
		c2.46,4.756,4.961,9.43,7.502,14.021c2.543,4.592,5.234,9.376,8.078,14.35c1.256-1.968,2.568-4.127,3.936-6.478
		c1.365-2.351,2.732-4.757,4.1-7.216c1.365-2.461,2.678-4.934,3.936-7.422c1.258-2.486,2.432-4.905,3.527-7.256
		c1.365,0.273,2.432,0.41,3.197,0.41s1.83-0.137,3.197-0.41c-2.623,3.99-4.975,7.599-7.051,10.823
		c-2.078,3.227-3.91,6.15-5.494,8.774c-1.586,2.623-2.98,4.988-4.182,7.093c-1.203,2.104-2.242,4.005-3.117,5.699
		c0,2.022,0.014,4.182,0.041,6.478c0.027,2.297,0.068,4.551,0.123,6.766c0.055,2.213,0.123,4.264,0.205,6.149
		s0.178,3.403,0.287,4.552c-1.258-0.111-2.598-0.164-4.018-0.164c-1.422,0-2.762,0.053-4.018,0.164
		c0.328-2.842,0.518-6.286,0.574-10.332c0.053-4.045,0.082-8.283,0.082-12.711C154.457,109.657,153.652,108.305,152.586,106.527z">

	<animateTransform id="anskljdf"
		attributeName="transform"
		attributeType="XML"
		type="translate"
		begin="0.8s"
		dur="0.7s"
		values="0,-5;0,-10;0,0"
		repeatCount="1"/>
		<animate id="animation2"
             attributeName="opacity"
             from="0" to="1" dur="3s" 
         />

</path>

<!--E de COYER-->
	<path fill="#CFC7E2" stroke="#040506" stroke-width="0.5" stroke-miterlimit="10" d="M191.207,87.791
		c-0.137-3.498-0.287-6.998-0.451-10.496c2.461,0.109,4.906,0.205,7.34,0.287c2.432,0.082,4.879,0.123,7.338,0.123
		c2.461,0,4.893-0.041,7.299-0.123c2.404-0.082,4.838-0.178,7.299-0.287c-0.164,0.819-0.246,1.64-0.246,2.459
		c0,0.82,0.082,1.641,0.246,2.461c-1.75-0.109-3.35-0.219-4.797-0.328c-1.449-0.109-2.98-0.219-4.594-0.328
		c-1.611-0.109-3.375-0.205-5.289-0.287s-4.209-0.123-6.887-0.123c-0.055,1.75-0.123,3.417-0.205,5.002
		c-0.082,1.586-0.123,3.391-0.123,5.412c0,2.132,0.012,4.21,0.041,6.232c0.027,2.022,0.041,3.554,0.041,4.592
		c2.404,0,4.564-0.027,6.479-0.082c1.912-0.055,3.66-0.123,5.248-0.205c1.584-0.082,3.047-0.164,4.387-0.246
		c1.338-0.082,2.609-0.177,3.812-0.287c-0.164,0.82-0.246,1.668-0.246,2.542c0,0.819,0.082,1.64,0.246,2.46
		c-1.422-0.164-3.074-0.3-4.961-0.41c-1.887-0.109-3.771-0.177-5.658-0.205c-1.887-0.027-3.662-0.054-5.33-0.082
		c-1.668-0.027-2.992-0.041-3.977-0.041c0,0.492-0.014,1.025-0.041,1.6c-0.029,0.574-0.041,1.299-0.041,2.173v3.198v4.92
		c0,3.115,0.012,5.686,0.041,7.707c0.027,2.023,0.068,3.555,0.123,4.593c1.803,0,3.717,0,5.74,0c2.076,0,4.111-0.041,6.109-0.123
		c1.994-0.082,3.881-0.19,5.656-0.328c1.777-0.136,3.322-0.341,4.635-0.614c-0.111,0.383-0.18,0.807-0.205,1.271
		c-0.029,0.465-0.041,0.89-0.041,1.271c0,0.875,0.082,1.586,0.246,2.133c-2.461-0.111-4.908-0.164-7.34-0.164
		c-2.434,0-4.908,0-7.422,0s-5.002,0-7.461,0c-2.461,0-4.949,0.053-7.463,0.164c0.164-3.498,0.314-6.983,0.451-10.455
		c0.137-3.471,0.205-7.012,0.205-10.619V98.45C191.412,94.842,191.344,91.289,191.207,87.791z">

	<animateTransform id="anskljdf"
		attributeName="transform"
		attributeType="XML"
		type="translate"
		begin="1.2s"
		dur="0.7s"
		values="0,-5;0,-10;0,0"
		repeatCount="1"/>
		<animate id="animation2"
             attributeName="opacity"
             from="0" to="1" dur="3s" 
         />

</path>

<!--R de COYER-->
	<path fill="#CFC7E2" stroke="#040506" stroke-width="0.5" stroke-miterlimit="10" d="M232.207,87.914
		c-0.137-3.472-0.287-7.012-0.451-10.619c1.586,0.109,3.143,0.205,4.674,0.287s3.088,0.123,4.674,0.123s3.145-0.068,4.676-0.205
		c1.529-0.137,3.088-0.205,4.674-0.205c2.295,0,4.48,0.219,6.559,0.655c2.078,0.438,3.896,1.162,5.453,2.173
		c1.559,1.013,2.789,2.338,3.691,3.978c0.9,1.64,1.352,3.69,1.352,6.149c0,2.625-0.588,4.879-1.762,6.766
		c-1.178,1.886-2.611,3.443-4.305,4.674c-1.695,1.23-3.514,2.188-5.453,2.87c-1.941,0.685-3.705,1.135-5.289,1.353
		c0.654,0.82,1.557,1.969,2.705,3.444s2.432,3.103,3.854,4.879s2.898,3.636,4.428,5.576c1.531,1.94,3.006,3.8,4.43,5.575
		c1.42,1.777,2.76,3.404,4.018,4.879c1.256,1.477,2.268,2.598,3.033,3.363c-0.82-0.111-1.639-0.164-2.459-0.164s-1.641,0-2.461,0
		c-0.766,0-1.559,0-2.377,0c-0.82,0-1.613,0.053-2.379,0.164c-0.82-1.148-2.064-2.871-3.73-5.166
		c-1.668-2.297-3.514-4.756-5.535-7.381c-2.023-2.623-4.088-5.233-6.191-7.83c-2.105-2.596-4.031-4.797-5.781-6.602h-3.115v5.986
		c0,3.607,0.068,7.162,0.205,10.66c0.135,3.498,0.287,6.942,0.451,10.332c-1.258-0.111-2.598-0.164-4.018-0.164
		c-1.424,0-2.762,0.053-4.02,0.164c0.164-3.39,0.314-6.834,0.451-10.332s0.205-7.053,0.205-10.66V98.532
		C232.412,94.924,232.344,91.386,232.207,87.914z M241.637,103.534c0.902,0.056,1.9,0.082,2.994,0.082
		c1.693,0,3.457-0.19,5.289-0.573c1.83-0.383,3.512-1.053,5.043-2.01c1.529-0.955,2.801-2.24,3.812-3.854
		c1.012-1.612,1.518-3.649,1.518-6.109c0-2.132-0.398-3.895-1.189-5.289c-0.793-1.395-1.818-2.501-3.074-3.32
		c-1.26-0.82-2.625-1.381-4.102-1.682c-1.475-0.3-2.924-0.451-4.346-0.451c-1.914,0-3.498,0.041-4.756,0.123
		s-2.324,0.178-3.197,0.287c-0.111,3.008-0.219,5.986-0.328,8.938c-0.111,2.953-0.164,5.904-0.164,8.856v4.675
		C239.902,103.37,240.736,103.48,241.637,103.534z">

	<animateTransform id="anskljdf"
		attributeName="transform"
		attributeType="XML"
		type="translate"
		begin="1.6s"
		dur="0.7s"
		values="0,-5;0,-10;0,0"
		repeatCount="1"/>
		<animate id="animation2"
             attributeName="opacity"
             from="0" to="1" dur="3s" 
         />

</path>

<!--S-->
	<path fill="#CFC7E2" stroke="#040506" stroke-width="0.5" stroke-miterlimit="10" d="M22.193,53.094c0.54,0.741,1.2,1.41,1.98,2.01
		s1.689,1.09,2.729,1.47c1.04,0.38,2.2,0.57,3.48,0.57c1.32,0,2.51-0.23,3.57-0.69c1.059-0.459,1.959-1.08,2.699-1.86
		c0.74-0.78,1.311-1.699,1.71-2.76c0.399-1.06,0.601-2.19,0.601-3.39c0-1.839-0.471-3.3-1.41-4.38c-0.94-1.08-2.11-1.98-3.51-2.7
		c-1.4-0.72-2.91-1.38-4.53-1.98c-1.62-0.6-3.13-1.35-4.53-2.25c-1.4-0.9-2.57-2.049-3.51-3.45c-0.94-1.4-1.41-3.279-1.41-5.64
		c0-1.68,0.3-3.21,0.9-4.59c0.6-1.38,1.47-2.57,2.61-3.57c1.14-0.999,2.509-1.779,4.109-2.34c1.6-0.56,3.399-0.84,5.4-0.84
		c1.92,0,3.579,0.23,4.979,0.69c1.4,0.46,2.7,1.17,3.9,2.13c-0.36,0.681-0.66,1.401-0.9,2.16c-0.239,0.76-0.479,1.72-0.72,2.88
		h-0.72c-0.201-0.56-0.471-1.17-0.811-1.83c-0.34-0.66-0.801-1.269-1.38-1.83c-0.58-0.56-1.271-1.029-2.07-1.41
		c-0.8-0.38-1.76-0.57-2.88-0.57s-2.15,0.18-3.09,0.54c-0.94,0.36-1.761,0.87-2.46,1.53c-0.7,0.66-1.24,1.45-1.62,2.37
		c-0.38,0.921-0.569,1.92-0.569,3c0,1.881,0.47,3.36,1.409,4.44c0.939,1.08,2.109,1.99,3.511,2.73c1.399,0.74,2.91,1.4,4.529,1.98
		c1.62,0.58,3.13,1.29,4.53,2.13c1.399,0.84,2.569,1.92,3.51,3.24c0.939,1.32,1.41,3.081,1.41,5.28c0,1.84-0.33,3.58-0.99,5.22
		c-0.659,1.641-1.619,3.07-2.88,4.29c-1.26,1.221-2.8,2.16-4.62,2.82c-1.82,0.66-3.891,0.99-6.21,0.99c-2.48,0-4.49-0.33-6.029-0.99
		c-1.541-0.66-2.831-1.41-3.87-2.25c0.359-0.92,0.609-1.75,0.75-2.49c0.14-0.74,0.27-1.689,0.39-2.85h0.72
		C21.223,51.625,21.653,52.355,22.193,53.094z">

	<animateTransform id="anskljdf"
		attributeName="transform"
		attributeType="XML"
		type="translate"
		dur="0.7s"
		values="0,-5;0,-10;0,0"
		repeatCount="1"/>
		<animate id="animation2"
             attributeName="opacity"
             from="0" to="1" dur="2s" 
         />

</path>

<!--1er E de Séverine-->
	<path fill="#CFC7E2" stroke="#040506" stroke-width="0.5" stroke-miterlimit="10" d="M52.074,25.165
		c-0.101-2.56-0.211-5.12-0.33-7.68c1.8,0.081,3.589,0.15,5.369,0.21s3.57,0.09,5.37,0.09c1.801,0,3.58-0.03,5.341-0.09
		c1.759-0.06,3.539-0.129,5.34-0.21c-0.12,0.6-0.181,1.2-0.181,1.8c0,0.6,0.061,1.2,0.181,1.8c-1.281-0.08-2.451-0.159-3.511-0.24
		c-1.06-0.08-2.181-0.159-3.359-0.24c-1.181-0.08-2.471-0.15-3.87-0.21c-1.4-0.06-3.081-0.09-5.04-0.09
		c-0.04,1.28-0.09,2.5-0.15,3.66c-0.06,1.161-0.09,2.481-0.09,3.96c0,1.56,0.01,3.081,0.03,4.56c0.02,1.48,0.03,2.601,0.03,3.36
		c1.76,0,3.339-0.02,4.739-0.06c1.4-0.04,2.68-0.09,3.841-0.15c1.159-0.06,2.229-0.12,3.21-0.18c0.979-0.06,1.909-0.129,2.79-0.21
		c-0.12,0.6-0.181,1.221-0.181,1.86c0,0.6,0.061,1.2,0.181,1.8c-1.041-0.12-2.25-0.219-3.631-0.3c-1.38-0.08-2.76-0.129-4.14-0.15
		c-1.38-0.02-2.681-0.04-3.9-0.06c-1.22-0.02-2.189-0.03-2.909-0.03c0,0.36-0.011,0.75-0.03,1.17c-0.021,0.42-0.03,0.95-0.03,1.59
		v2.34v3.6c0,2.28,0.01,4.161,0.03,5.64c0.02,1.48,0.05,2.601,0.09,3.36c1.32,0,2.72,0,4.2,0c1.52,0,3.009-0.03,4.47-0.09
		c1.46-0.06,2.84-0.14,4.141-0.24c1.299-0.099,2.43-0.25,3.39-0.45c-0.081,0.28-0.131,0.59-0.15,0.93
		c-0.021,0.34-0.029,0.651-0.029,0.93c0,0.64,0.06,1.161,0.18,1.56c-1.8-0.081-3.591-0.12-5.37-0.12c-1.78,0-3.591,0-5.43,0
		c-1.841,0-3.66,0-5.46,0c-1.801,0-3.621,0.04-5.46,0.12c0.119-2.56,0.229-5.109,0.33-7.65c0.099-2.54,0.149-5.13,0.149-7.77v-10.32
		C52.223,30.325,52.172,27.725,52.074,25.165z M69.744,4.344c0.399,0,0.829,0.161,1.29,0.48c0.459,0.32,0.689,0.8,0.689,1.44
		c0,0.72-0.24,1.29-0.72,1.71c-0.48,0.42-0.96,0.79-1.44,1.11l-8.819,5.64h-2.521l8.82-8.94C68.003,4.825,68.903,4.344,69.744,4.344
		z">

	<animateTransform id="anskljdf"
		attributeName="transform"
		attributeType="XML"
		type="translate"
		begin="0.3s"
		dur="0.7s"
		values="0,-5;0,-10;0,0"
		repeatCount="1"/>
		<animate id="animation2"
             attributeName="opacity"
             from="0" to="1" dur="2s" 
         />

</path>


<!--V-->
	<path fill="#CFC7E2" stroke="#040506" stroke-width="0.5" stroke-miterlimit="10" d="M90.744,50.185
		c-1.32-3.32-2.73-6.819-4.23-10.5c-1.5-3.68-3.04-7.44-4.62-11.28c-1.58-3.84-3.09-7.479-4.53-10.92
		c0.561,0.081,1.101,0.15,1.62,0.21s1.021,0.09,1.5,0.09c0.48,0,0.98-0.03,1.5-0.09s1.06-0.129,1.62-0.21
		c0.88,2.64,1.85,5.411,2.91,8.31c1.06,2.901,2.18,5.85,3.36,8.85c1.179,3,2.39,6.04,3.63,9.12c1.239,3.081,2.499,6.141,3.78,9.18
		c0.72-1.64,1.5-3.47,2.34-5.49c0.84-2.02,1.689-4.12,2.55-6.3c0.859-2.18,1.71-4.399,2.55-6.66c0.84-2.26,1.65-4.43,2.43-6.51
		c0.78-2.079,1.49-4.02,2.131-5.82c0.639-1.8,1.179-3.36,1.619-4.68c0.88,0.201,1.62,0.3,2.221,0.3c0.6,0,1.34-0.1,2.22-0.3
		c-3.12,6.96-6.12,13.86-9,20.7c-2.88,6.84-5.64,13.68-8.28,20.52c-0.64-0.081-1.3-0.12-1.979-0.12c-0.801,0-1.461,0.04-1.98,0.12
		C93.183,56.345,92.063,53.505,90.744,50.185z">
	<animateTransform id="anskljdf"
		attributeName="transform"
		attributeType="XML"
		type="translate"
		begin="0.6s"
		dur="0.7s"
		values="0,-5;0,-10;0,0"
		repeatCount="1"/>
		<animate id="animation2"
             attributeName="opacity"
             from="0" to="1" dur="2s" 
         />

</path>

<!--2e E de Séverine-->
	<path fill="#CFC7E2" stroke="#040506" stroke-width="0.5" stroke-miterlimit="10" d="M122.093,25.165
		c-0.101-2.56-0.211-5.12-0.33-7.68c1.8,0.081,3.589,0.15,5.369,0.21s3.57,0.09,5.37,0.09c1.801,0,3.58-0.03,5.341-0.09
		c1.759-0.06,3.539-0.129,5.34-0.21c-0.12,0.6-0.181,1.2-0.181,1.8c0,0.6,0.061,1.2,0.181,1.8c-1.281-0.08-2.451-0.159-3.511-0.24
		c-1.06-0.08-2.181-0.159-3.359-0.24c-1.181-0.08-2.471-0.15-3.87-0.21c-1.4-0.06-3.081-0.09-5.04-0.09
		c-0.04,1.28-0.09,2.5-0.15,3.66c-0.06,1.161-0.09,2.481-0.09,3.96c0,1.56,0.01,3.081,0.03,4.56c0.02,1.48,0.03,2.601,0.03,3.36
		c1.76,0,3.339-0.02,4.739-0.06c1.4-0.04,2.68-0.09,3.841-0.15c1.159-0.06,2.229-0.12,3.21-0.18c0.979-0.06,1.909-0.129,2.79-0.21
		c-0.12,0.6-0.181,1.221-0.181,1.86c0,0.6,0.061,1.2,0.181,1.8c-1.041-0.12-2.25-0.219-3.631-0.3c-1.38-0.08-2.76-0.129-4.14-0.15
		c-1.38-0.02-2.681-0.04-3.9-0.06c-1.22-0.02-2.189-0.03-2.909-0.03c0,0.36-0.011,0.75-0.03,1.17c-0.021,0.42-0.03,0.95-0.03,1.59
		v2.34v3.6c0,2.28,0.01,4.161,0.03,5.64c0.02,1.48,0.05,2.601,0.09,3.36c1.32,0,2.72,0,4.2,0c1.52,0,3.009-0.03,4.47-0.09
		c1.46-0.06,2.84-0.14,4.141-0.24c1.299-0.099,2.43-0.25,3.39-0.45c-0.081,0.28-0.131,0.59-0.15,0.93
		c-0.021,0.34-0.029,0.651-0.029,0.93c0,0.64,0.06,1.161,0.18,1.56c-1.8-0.081-3.591-0.12-5.37-0.12c-1.78,0-3.591,0-5.43,0
		c-1.841,0-3.66,0-5.46,0c-1.801,0-3.621,0.04-5.46,0.12c0.119-2.56,0.229-5.109,0.33-7.65c0.099-2.54,0.149-5.13,0.149-7.77v-10.32
		C122.243,30.325,122.192,27.725,122.093,25.165z">
	<animateTransform id="anskljdf"
		attributeName="transform"
		attributeType="XML"
		type="translate"
		begin="0.8s"
		dur="0.7s"
		values="0,-5;0,-10;0,0"
		repeatCount="1"/>
		<animate id="animation2"
             attributeName="opacity"
             from="0" to="1" dur="2s" 
         />

</path>

<!--R de Séverine-->
	<path fill="#CFC7E2" stroke="#040506" stroke-width="0.5" stroke-miterlimit="10" d="M152.094,25.254
		c-0.102-2.54-0.211-5.13-0.33-7.77c1.158,0.081,2.299,0.15,3.42,0.21c1.119,0.06,2.258,0.09,3.42,0.09
		c1.158,0,2.299-0.05,3.42-0.15c1.119-0.099,2.258-0.15,3.42-0.15c1.68,0,3.279,0.161,4.799,0.48c1.52,0.321,2.852,0.851,3.99,1.59
		c1.141,0.74,2.041,1.71,2.701,2.91c0.66,1.2,0.988,2.7,0.988,4.5c0,1.92-0.43,3.57-1.289,4.95c-0.861,1.38-1.91,2.52-3.15,3.42
		s-2.57,1.6-3.99,2.1c-1.42,0.5-2.709,0.831-3.869,0.99c0.48,0.6,1.141,1.44,1.98,2.52s1.779,2.271,2.818,3.57
		c1.041,1.3,2.121,2.661,3.24,4.08c1.119,1.42,2.199,2.781,3.24,4.08c1.041,1.3,2.02,2.49,2.941,3.57
		c0.918,1.08,1.658,1.9,2.219,2.46c-0.6-0.081-1.199-0.12-1.799-0.12c-0.602,0-1.201,0-1.801,0c-0.561,0-1.141,0-1.74,0
		s-1.18,0.04-1.74,0.12c-0.6-0.84-1.51-2.1-2.73-3.78c-1.221-1.68-2.57-3.48-4.049-5.4c-1.48-1.92-2.99-3.83-4.531-5.73
		c-1.539-1.899-2.949-3.51-4.229-4.83h-2.281v4.38c0,2.64,0.051,5.241,0.15,7.8c0.1,2.56,0.211,5.08,0.33,7.56
		c-0.92-0.081-1.9-0.12-2.939-0.12c-1.041,0-2.021,0.04-2.939,0.12c0.119-2.48,0.229-5,0.33-7.56c0.098-2.56,0.148-5.16,0.148-7.8
		v-10.32C152.242,30.384,152.191,27.795,152.094,25.254z M158.992,36.685c0.66,0.04,1.391,0.06,2.191,0.06
		c1.238,0,2.529-0.14,3.869-0.42c1.34-0.28,2.57-0.77,3.689-1.47c1.119-0.699,2.051-1.64,2.791-2.82
		c0.74-1.18,1.109-2.67,1.109-4.47c0-1.56-0.291-2.85-0.869-3.87c-0.58-1.02-1.33-1.83-2.25-2.43c-0.922-0.6-1.92-1.01-3-1.23
		c-1.08-0.22-2.141-0.33-3.18-0.33c-1.402,0-2.561,0.03-3.48,0.09c-0.922,0.06-1.701,0.13-2.34,0.21c-0.082,2.2-0.16,4.38-0.24,6.54
		s-0.121,4.32-0.121,6.48v3.42C157.723,36.564,158.332,36.645,158.992,36.685z">
	<animateTransform id="anskljdf"
		attributeName="transform"
		attributeType="XML"
		type="translate"
		begin="1s"
		dur="0.7s"
		values="0,-5;0,-10;0,0"
		repeatCount="1"/>
		<animate id="animation2"
             attributeName="opacity"
             from="0" to="1" dur="2s" 
         />

</path>

<!--I-->
	<path fill="#CFC7E2" stroke="#040506" stroke-width="0.5" stroke-miterlimit="10" d="M188.752,25.254
		c-0.1-2.54-0.211-5.13-0.33-7.77c0.52,0.081,1.02,0.15,1.5,0.21s0.961,0.09,1.439,0.09c0.48,0,0.961-0.03,1.441-0.09
		c0.479-0.06,0.979-0.129,1.5-0.21c-0.121,2.64-0.23,5.23-0.33,7.77c-0.102,2.541-0.15,5.13-0.15,7.77v10.32
		c0,2.64,0.049,5.241,0.15,7.8c0.1,2.56,0.209,5.08,0.33,7.56c-0.922-0.081-1.9-0.12-2.941-0.12c-1.039,0-2.02,0.04-2.939,0.12
		c0.119-2.48,0.23-5,0.33-7.56c0.1-2.56,0.15-5.16,0.15-7.8v-10.32C188.902,30.384,188.852,27.795,188.752,25.254z">
	<animateTransform id="anskljdf"
		attributeName="transform"
		attributeType="XML"
		type="translate"
		begin="1.2s"
		dur="0.7s"
		values="0,-5;0,-10;0,0"
		repeatCount="1"/>
		<animate id="animation2"
             attributeName="opacity"
             from="0" to="1" dur="2s" 
         />

</path>
<!--N-->

	<path fill="#CFC7E2" stroke="#040506" stroke-width="0.5" stroke-miterlimit="10" d="M224.662,43.134
		c-5.201-5.58-10.4-11.13-15.6-16.65c-0.041,1.121-0.082,2.621-0.121,4.5c-0.041,1.881-0.061,4.44-0.061,7.68
		c0,0.84,0.01,1.88,0.031,3.12c0.02,1.24,0.039,2.541,0.059,3.9c0.021,1.36,0.051,2.74,0.092,4.14c0.039,1.4,0.078,2.7,0.119,3.9
		c0.039,1.2,0.08,2.25,0.119,3.15c0.041,0.9,0.08,1.51,0.121,1.83c-0.641-0.081-1.342-0.12-2.1-0.12c-0.801,0-1.541,0.04-2.221,0.12
		c0.08-0.399,0.17-1.14,0.27-2.22s0.189-2.37,0.271-3.87c0.078-1.5,0.168-3.129,0.27-4.89c0.1-1.76,0.18-3.52,0.24-5.28
		c0.059-1.76,0.109-3.48,0.148-5.16c0.041-1.68,0.061-3.18,0.061-4.5c0-3.84-0.01-7.14-0.029-9.9c-0.021-2.76-0.07-4.819-0.15-6.18
		h0.961c2.438,2.64,5.049,5.47,7.828,8.49c2.781,3.021,5.541,6,8.281,8.94c2.738,2.94,5.34,5.721,7.799,8.34
		c2.461,2.62,4.611,4.851,6.451,6.69v-8.16c0-4.2-0.031-8.289-0.09-12.27c-0.061-3.979-0.191-7.729-0.391-11.25
		c0.801,0.201,1.48,0.3,2.041,0.3c0.479,0,1.119-0.1,1.92-0.3c-0.082,0.88-0.172,2.2-0.271,3.96c-0.1,1.761-0.199,3.641-0.299,5.64
		c-0.102,2-0.191,3.96-0.27,5.88c-0.082,1.92-0.121,3.46-0.121,4.62c0,1,0,2.2,0,3.6c0,1.36,0.01,2.781,0.029,4.26
		c0.021,1.48,0.041,2.97,0.061,4.47s0.039,2.9,0.061,4.2c0.02,1.3,0.029,2.43,0.029,3.39c0,0.88,0,1.54,0,1.98h-0.84
		C234.762,54.165,229.861,48.714,224.662,43.134z">

	<animateTransform id="anskljdf"
		attributeName="transform"
		attributeType="XML"
		type="translate"
		begin="1.4s"
		dur="0.7s"
		values="0,-5;0,-10;0,0"
		repeatCount="1"/>
		<animate id="animation2"
             attributeName="opacity"
             from="0" to="1" dur="2s" 
         />

</path>

<!--Dernier E de Séverine-->
	<path fill="#CFC7E2" stroke="#040506" stroke-width="0.5" stroke-miterlimit="10" d="M252.111,25.165
		c-0.1-2.56-0.211-5.12-0.33-7.68c1.801,0.081,3.59,0.15,5.369,0.21c1.781,0.06,3.57,0.09,5.371,0.09s3.58-0.03,5.34-0.09
		s3.539-0.129,5.34-0.21c-0.119,0.6-0.18,1.2-0.18,1.8c0,0.6,0.061,1.2,0.18,1.8c-1.281-0.08-2.451-0.159-3.51-0.24
		c-1.061-0.08-2.182-0.159-3.359-0.24c-1.182-0.08-2.471-0.15-3.871-0.21s-3.08-0.09-5.039-0.09c-0.041,1.28-0.09,2.5-0.15,3.66
		c-0.061,1.161-0.09,2.481-0.09,3.96c0,1.56,0.01,3.081,0.029,4.56c0.02,1.48,0.031,2.601,0.031,3.36c1.76,0,3.338-0.02,4.738-0.06
		c1.4-0.04,2.68-0.09,3.842-0.15c1.158-0.06,2.229-0.12,3.209-0.18s1.91-0.129,2.791-0.21c-0.121,0.6-0.182,1.221-0.182,1.86
		c0,0.6,0.061,1.2,0.182,1.8c-1.041-0.12-2.25-0.219-3.631-0.3c-1.381-0.08-2.76-0.129-4.141-0.15c-1.379-0.02-2.68-0.04-3.9-0.06
		c-1.219-0.02-2.189-0.03-2.908-0.03c0,0.36-0.012,0.75-0.031,1.17c-0.02,0.42-0.029,0.95-0.029,1.59v2.34v3.6
		c0,2.28,0.01,4.161,0.029,5.64c0.02,1.48,0.051,2.601,0.09,3.36c1.32,0,2.721,0,4.201,0c1.52,0,3.008-0.03,4.469-0.09
		s2.84-0.14,4.141-0.24c1.299-0.099,2.43-0.25,3.391-0.45c-0.082,0.28-0.131,0.59-0.15,0.93c-0.021,0.34-0.029,0.651-0.029,0.93
		c0,0.64,0.059,1.161,0.18,1.56c-1.801-0.081-3.592-0.12-5.371-0.12s-3.59,0-5.43,0s-3.66,0-5.459,0c-1.801,0-3.621,0.04-5.461,0.12
		c0.119-2.56,0.23-5.109,0.33-7.65c0.1-2.54,0.15-5.13,0.15-7.77v-10.32C252.262,30.325,252.211,27.725,252.111,25.165z">
	<animateTransform id="anskljdf"
		attributeName="transform"
		attributeType="XML"
		type="translate"
		begin="1.6s"
		dur="0.7s"
		values="0,-5;0,-10;0,0"
		repeatCount="1"/>
		<animate id="animation2"
             attributeName="opacity"
             from="0" to="1" dur="2s" 
         />

</path>


</g>
</svg>
